<?xml version="1.0" encoding="UTF-8"?>
<svg version="1.1" xmlns="http://www.w3.org/2000/svg" width="943" height="264">
<path d="M0 0 C1.88525391 -0.0076664 1.88525391 -0.0076664 3.80859375 -0.01548767 C7.22414352 -0.02692856 10.63944897 -0.02946971 14.05500054 -0.02692437 C16.92231051 -0.02584631 19.78959868 -0.03075927 22.65690392 -0.03552979 C29.43062868 -0.04658425 36.20429796 -0.04708566 42.97802734 -0.04101562 C49.929129 -0.03498169 56.88002794 -0.04728139 63.83109504 -0.06858569 C69.83234822 -0.08629182 75.8335374 -0.09218888 81.83481568 -0.08894795 C85.4043764 -0.08714892 88.97379256 -0.08963103 92.54332924 -0.10366249 C96.53162084 -0.11875652 100.51950892 -0.10919261 104.5078125 -0.09765625 C105.66514389 -0.10529999 106.82247528 -0.11294373 108.01487732 -0.12081909 C119.80869618 -0.04599517 131.00910268 1.62678779 140.94799805 8.2746582 C141.93799805 8.9346582 142.92799805 9.5946582 143.94799805 10.2746582 C143.94799805 10.9346582 143.94799805 11.5946582 143.94799805 12.2746582 C144.93799805 12.6046582 145.92799805 12.9346582 146.94799805 13.2746582 C156.12530483 24.16228125 158.10166114 34.05299765 158.1159668 47.9543457 C158.1192952 49.08107697 158.1226236 50.20780823 158.12605286 51.36868286 C158.13110549 53.74733066 158.1334617 56.12598551 158.13330078 58.50463867 C158.13548615 62.12992104 158.1536568 65.75489841 158.17260742 69.38012695 C158.17554196 71.69653217 158.17752635 74.01293882 158.1784668 76.3293457 C158.18565231 77.40666962 158.19283783 78.48399353 158.20024109 79.59396362 C158.16306968 91.93085523 154.89313748 103.32951877 145.94799805 112.2746582 C136.80080006 119.50515202 128.7568799 123.38068324 116.94085693 123.4151001 C115.17056877 123.42366531 115.17056877 123.42366531 113.36451721 123.43240356 C111.44275917 123.43408035 111.44275917 123.43408035 109.48217773 123.43579102 C108.10837167 123.44042446 106.73456687 123.44544982 105.36076355 123.45083618 C101.63949217 123.46391133 97.91823879 123.47039554 94.19694805 123.47484684 C91.86811522 123.47778542 89.53928723 123.48189168 87.21045685 123.48635101 C79.91262008 123.50001296 72.61479446 123.50968603 65.31694579 123.5135529 C56.91383983 123.51803086 48.51089675 123.53557196 40.1078403 123.5645535 C33.59805942 123.58622027 27.0883242 123.59625984 20.57850766 123.59759402 C16.69711863 123.59863846 12.81588299 123.60446889 8.93453217 123.62241364 C5.2802465 123.63898112 1.62622812 123.64100818 -2.02808189 123.63227463 C-3.99421012 123.63114621 -5.96032982 123.64479622 -7.92640686 123.6590271 C-17.395318 123.6147677 -25.53087372 122.26792985 -33.67700195 117.2121582 C-34.51489258 116.70555664 -35.3527832 116.19895508 -36.21606445 115.67700195 C-36.82192383 115.21422852 -37.4277832 114.75145508 -38.05200195 114.2746582 C-38.05200195 113.6146582 -38.05200195 112.9546582 -38.05200195 112.2746582 C-39.04200195 111.9446582 -40.03200195 111.6146582 -41.05200195 111.2746582 C-41.05200195 110.6146582 -41.05200195 109.9546582 -41.05200195 109.2746582 C-41.71200195 109.2746582 -42.37200195 109.2746582 -43.05200195 109.2746582 C-44.4543457 107.6574707 -44.4543457 107.6574707 -45.98950195 105.3996582 C-46.49352539 104.68036133 -46.99754883 103.96106445 -47.5168457 103.2199707 C-51.87732467 94.85406449 -52.49992144 86.70456887 -52.45043945 77.3996582 C-52.45330963 76.1945459 -52.45617981 74.98943359 -52.45913696 73.74780273 C-52.46116821 71.21312995 -52.45570452 68.67844116 -52.44311523 66.14379883 C-52.42704926 62.28601702 -52.4429972 58.42928281 -52.4621582 54.5715332 C-52.46017561 52.09757258 -52.45633159 49.6236126 -52.45043945 47.1496582 C-52.45651215 46.00770996 -52.46258484 44.86576172 -52.46884155 43.68920898 C-52.36134664 31.3200816 -49.26968521 22.60903013 -41.05200195 13.2746582 C-28.94162513 1.88162077 -16.1742377 -0.03444232 0 0 Z M10.47827148 36.12817383 C10.091875 36.80557617 9.70547852 37.48297852 9.30737305 38.1809082 C8.87682617 38.92469727 8.4462793 39.66848633 8.00268555 40.43481445 C7.57213867 41.20696289 7.1415918 41.97911133 6.69799805 42.7746582 C6.25198242 43.54680664 5.8059668 44.31895508 5.34643555 45.11450195 C3.60388253 48.16132951 2.06127116 50.93483886 0.94799805 54.2746582 C0.2003418 54.28883789 -0.54731445 54.30301758 -1.31762695 54.31762695 C-2.79489258 54.38916992 -2.79489258 54.38916992 -4.30200195 54.4621582 C-5.2765332 54.49696289 -6.25106445 54.53176758 -7.25512695 54.56762695 C-11.05612465 55.52849369 -11.9544573 57.00541225 -14.05200195 60.2746582 C-14.59928528 63.55552203 -14.59928528 63.55552203 -14.44262695 67.10668945 C-14.42973633 68.39897461 -14.4168457 69.69125977 -14.40356445 71.02270508 C-14.3701483 72.37753366 -14.33628858 73.73235137 -14.30200195 75.0871582 C-14.28192229 76.46148137 -14.26367408 77.83583259 -14.24731445 79.21020508 C-14.20021927 82.56573677 -14.13445331 85.91983947 -14.05200195 89.2746582 C-13.14836914 89.22825195 -12.24473633 89.1818457 -11.3137207 89.1340332 C-10.13422852 89.09793945 -8.95473633 89.0618457 -7.73950195 89.0246582 C-6.56774414 88.97825195 -5.39598633 88.9318457 -4.1887207 88.8840332 C-1.05200195 89.2746582 -1.05200195 89.2746582 0.7409668 91.2902832 C1.13928711 91.94512695 1.53760742 92.5999707 1.94799805 93.2746582 C2.60799805 93.2746582 3.26799805 93.2746582 3.94799805 93.2746582 C3.94799805 93.9346582 3.94799805 94.5946582 3.94799805 95.2746582 C8.27200815 97.43666325 12.20144295 97.91009966 16.94799805 97.2746582 C20.2105992 95.752111 22.53308067 93.91956771 24.94799805 91.2746582 C27.57176562 88.65089063 28.75908666 89.00184878 32.41992188 88.95239258 C33.56483597 88.93317749 34.70975006 88.9139624 35.88935852 88.89416504 C37.13202988 88.88566528 38.37470123 88.87716553 39.6550293 88.8684082 C41.56405281 88.85130798 41.56405281 88.85130798 43.51164246 88.8338623 C46.20940461 88.81493883 48.90672058 88.80115821 51.60449219 88.79418945 C55.05508235 88.78323294 58.50408856 88.73521425 61.95418262 88.67824554 C65.25017788 88.63194011 68.5462543 88.62808947 71.8425293 88.6184082 C73.69742729 88.5813678 73.69742729 88.5813678 75.58979797 88.5435791 C84.00508656 88.58733474 84.00508656 88.58733474 86.74789429 90.58666992 C88.05224609 92.19458008 88.05224609 92.19458008 89.94799805 95.2746582 C93.5516831 97.30582614 95.86672002 98.318792 100.01049805 98.1496582 C106.01639175 96.48552406 106.01639175 96.48552406 110.11987305 92.16918945 C110.52979492 91.23139648 110.52979492 91.23139648 110.94799805 90.2746582 C111.51309082 90.24960205 112.07818359 90.2245459 112.66040039 90.19873047 C115.21483547 90.08285865 117.76889355 89.96009283 120.32299805 89.8371582 C121.21245117 89.7978418 122.1019043 89.75852539 123.01831055 89.71801758 C123.8690918 89.67612305 124.71987305 89.63422852 125.59643555 89.59106445 C126.38195801 89.55440674 127.16748047 89.51774902 127.97680664 89.47998047 C130.02323301 89.3837672 130.02323301 89.3837672 131.94799805 88.2746582 C131.97489253 85.31626465 131.99478546 82.35811393 132.01049805 79.3996582 C132.01887695 78.55790039 132.02725586 77.71614258 132.03588867 76.84887695 C132.03911133 76.04321289 132.04233398 75.23754883 132.0456543 74.4074707 C132.05089111 73.66384277 132.05612793 72.92021484 132.06152344 72.15405273 C132.06586441 70.18333253 132.06586441 70.18333253 130.94799805 68.2746582 C130.28799805 68.2746582 129.62799805 68.2746582 128.94799805 68.2746582 C128.61799805 67.2846582 128.28799805 66.2946582 127.94799805 65.2746582 C124.44714615 62.94075694 120.94865662 62.01143479 116.94799805 60.8996582 C97.00915689 55.15213299 97.00915689 55.15213299 91.94799805 49.2746582 C91.28799805 49.2746582 90.62799805 49.2746582 89.94799805 49.2746582 C89.71467773 48.7177832 89.48135742 48.1609082 89.2409668 47.5871582 C87.61605735 44.68097576 85.6087142 42.63366249 83.26049805 40.2746582 C82.43163086 39.4290332 81.60276367 38.5834082 80.7487793 37.7121582 C73.41061183 31.32580325 68.16823264 30.68366348 58.62768555 30.77856445 C57.45086212 30.77710922 56.2740387 30.77565399 55.06155396 30.77415466 C52.5821077 30.77580989 50.10265077 30.78732871 47.62329102 30.80810547 C43.82873975 30.83711431 40.03558181 30.82869433 36.2409668 30.81567383 C33.8281996 30.82191 31.4154368 30.83029998 29.00268555 30.84106445 C27.86926727 30.83812881 26.735849 30.83519318 25.56808472 30.83216858 C23.98086105 30.85119484 23.98086105 30.85119484 22.36157227 30.87060547 C20.9709407 30.87870995 20.9709407 30.87870995 19.55221558 30.88697815 C15.67439016 31.46425541 12.91259121 33.05818125 10.47827148 36.12817383 Z " fill="#781012" transform="translate(73.052001953125,78.725341796875)"/>
<path d="M0 0 C10.89 0 21.78 0 33 0 C34.31456165 3.94368495 33.39708599 7.00431916 32.56640625 10.95703125 C32.40961899 11.73761398 32.25283173 12.51819672 32.09129333 13.32243347 C31.5889366 15.82065384 31.07666249 18.31668463 30.5625 20.8125 C30.05254569 23.29771429 29.54495085 25.78330159 29.04441833 28.27043152 C28.73290999 29.81757207 28.41600275 31.36363843 28.09291077 32.90840149 C27.2425255 37.12323378 27 40.62800844 27 45 C35.25 45 43.5 45 52 45 C52.25652344 43.19015625 52.51304687 41.3803125 52.77734375 39.515625 C53.90243581 32.20797861 55.43601069 25.03231107 57.08666992 17.82958984 C57.57119933 15.71198005 58.04672074 13.59247465 58.52148438 11.47265625 C58.82760338 10.12227748 59.13422419 8.77201234 59.44140625 7.421875 C59.71670166 6.21112305 59.99199707 5.00037109 60.27563477 3.75292969 C61 1 61 1 62 0 C64.36398468 -0.1007812 66.69811311 -0.13973215 69.0625 -0.1328125 C69.76898682 -0.13376923 70.47547363 -0.13472595 71.20336914 -0.13571167 C72.69970793 -0.13639333 74.19604967 -0.13454005 75.69238281 -0.13037109 C77.99030157 -0.12502257 80.28802486 -0.13031651 82.5859375 -0.13671875 C84.03645877 -0.13605797 85.48697991 -0.1347768 86.9375 -0.1328125 C87.6291626 -0.13483673 88.3208252 -0.13686096 89.03344727 -0.13894653 C93.88504776 -0.11495224 93.88504776 -0.11495224 95 1 C94.89481135 9.10821105 93.08420248 17.00276148 91.3125 24.875 C90.76856372 27.35135018 90.22562676 29.82792003 89.68359375 32.3046875 C89.2656958 34.20492676 89.2656958 34.20492676 88.83935547 36.14355469 C87.47332632 42.41981892 86.17160754 48.70908311 84.875 55 C84.50205811 56.80887695 84.50205811 56.80887695 84.12158203 58.65429688 C83.41225416 62.10243159 82.7053515 65.55104984 82 69 C81.79068848 70.02319336 81.58137695 71.04638672 81.36572266 72.10058594 C80.80325308 74.85811494 80.24433898 77.61632908 79.6875 80.375 C79.52813965 81.15875 79.3687793 81.9425 79.20458984 82.75 C78.53785738 86.07851664 77.95406366 89.3562867 77.51953125 92.7265625 C77.02983023 95.81204713 76.17111728 98.12786827 75 101 C74.21030642 104.69212759 73.54722143 108.39744884 72.87890625 112.11328125 C71.93167129 116.30216473 70.58742327 120.01596555 69 124 C64.6217488 124.02469081 60.24353433 124.04285557 55.86523438 124.05493164 C54.37531834 124.05996514 52.88540726 124.06679242 51.39550781 124.07543945 C49.25584696 124.08754805 47.11625132 124.09323807 44.9765625 124.09765625 C43.68830566 124.10289307 42.40004883 124.10812988 41.07275391 124.11352539 C38 124 38 124 36 123 C35.66080158 117.12056078 36.55717482 112.29891798 38.0625 106.625 C39.21623079 102.1639076 40.25590222 97.68652978 41.25 93.1875 C41.43723633 92.38723389 41.62447266 91.58696777 41.81738281 90.76245117 C42.89327077 85.82375517 43.21404151 81.94011574 42 77 C38.73188198 75.36594099 35.15000593 75.81546243 31.5625 75.8125 C30.78583984 75.80025391 30.00917969 75.78800781 29.20898438 75.77539062 C25.28767691 75.76525805 23.33381255 75.7774583 20 78 C18.98655434 80.53361414 18.14222337 82.955832 17.375 85.5625 C17.15553711 86.28469727 16.93607422 87.00689453 16.70996094 87.75097656 C15.21011064 92.85046756 14.35426173 97.68607402 14 103 C13.69286569 104.33961092 13.35898356 105.67334266 13 107 C12.690625 108.27230469 12.38125 109.54460937 12.0625 110.85546875 C11.70842773 112.29950231 11.35425837 113.74351208 11 115.1875 C10.82210937 115.92419922 10.64421875 116.66089844 10.4609375 117.41992188 C9.113038 122.886962 9.113038 122.886962 8 124 C5.64768301 124.10081087 3.32538053 124.13972939 0.97265625 124.1328125 C0.26854111 124.13376923 -0.43557404 124.13472595 -1.161026 124.13571167 C-2.65316863 124.13639341 -4.14531421 124.13453952 -5.63745117 124.13037109 C-7.92438418 124.12503063 -10.21112008 124.1303121 -12.49804688 124.13671875 C-13.94531293 124.13605781 -15.39257887 124.13477632 -16.83984375 124.1328125 C-17.52634506 124.13483673 -18.21284637 124.13686096 -18.92015076 124.13894653 C-23.77008473 124.11495764 -23.77008473 124.11495764 -26 123 C-25.24641778 117.28209777 -24.19947364 111.65329888 -23.0625 106 C-22.85359131 104.9581958 -22.64468262 103.9163916 -22.42944336 102.84301758 C-19.0191852 85.99556908 -15.38895338 69.19292856 -11.79197693 52.38459778 C-10.57416951 46.69279795 -9.36317782 40.999629 -8.16015625 35.3046875 C-7.89517334 34.05469971 -7.63019043 32.80471191 -7.35717773 31.5168457 C-6.89495802 29.33613657 -6.434585 27.15503446 -5.97680664 24.97338867 C-4.19094575 16.58102796 -2.08576111 8.34304443 0 0 Z " fill="#781415" transform="translate(637,79)"/>
<path d="M0 0 C5.31614869 -0.05001081 10.63215582 -0.08600398 15.94848633 -0.10986328 C17.75124502 -0.11982594 19.55398796 -0.13340096 21.35668945 -0.15087891 C56.30948509 -0.48089697 56.30948509 -0.48089697 68.59375 11.5625 C76.75460301 20.52343663 77.52029794 30.2659123 77 42 C75.79498425 54.13623002 69.98396563 62.04229261 61 70 C60.01 70.66 59.02 71.32 58 72 C56.11424262 78.32902262 57.94043046 82.42482376 60.5625 88.125 C60.93020508 88.9595874 61.29791016 89.7941748 61.67675781 90.65405273 C62.76552654 93.11182279 63.87753163 95.55746365 65 98 C65.2995459 98.65468262 65.5990918 99.30936523 65.90771484 99.98388672 C67.15386613 102.70027465 68.41282716 105.41039846 69.6796875 108.1171875 C75 119.73372781 75 119.73372781 75 123 C71.41622479 124.19459174 68.10847878 124.19991392 64.375 124.23828125 C63.63169434 124.246353 62.88838867 124.25442474 62.12255859 124.26274109 C60.55243242 124.27655551 58.98227656 124.28728946 57.41210938 124.29516602 C55.00854221 124.31243861 52.60633024 124.35635154 50.203125 124.40039062 C48.67709344 124.41051304 47.1510502 124.41903055 45.625 124.42578125 C44.90618652 124.44328934 44.18737305 124.46079742 43.44677734 124.47883606 C38.46987615 124.45713011 38.46987615 124.45713011 36.07397461 122.1262207 C34.86032227 119.72347048 34.17767318 117.49617267 33.5625 114.875 C32.38439491 110.24848315 30.88036491 105.95413525 29.0390625 101.5546875 C27.55384418 97.90306051 26.29490822 94.17728344 25.02734375 90.4453125 C23.96584885 87.91871246 22.826562 86.04005626 21 84 C20.34 84 19.68 84 19 84 C13.30230146 95.00245235 12.1105918 107.37012393 10.52734375 119.5234375 C10 122 10 122 8 124 C4.8671875 124.24291992 4.8671875 124.24291992 0.875 124.23046875 C0.1722998 124.23001053 -0.53040039 124.22955231 -1.25439453 124.2290802 C-2.74057706 124.22605825 -4.22675644 124.21817359 -5.71289062 124.20581055 C-7.99099925 124.18757206 -10.26870104 124.18530075 -12.546875 124.18554688 C-23.70494741 124.14752629 -23.70494741 124.14752629 -26 123 C-25.49934638 115.37788733 -24.06563594 108.08918304 -22.37665558 100.64868736 C-21.74280367 97.85538829 -21.12225922 95.05917706 -20.50089645 92.26307774 C-20.17118126 90.77951621 -19.84085312 89.29609078 -19.50993729 87.81279659 C-17.83435496 80.29191822 -16.22435541 72.75748395 -14.62324524 65.22045517 C-14.14018636 62.9471545 -13.65592474 60.67411336 -13.17126465 58.40115356 C-11.86211545 52.26099017 -10.55391763 46.12062851 -9.25048828 39.97924805 C-8.43462632 36.13570507 -7.61568368 32.29282922 -6.79479218 28.45035744 C-6.48910437 27.0167015 -6.1845227 25.58280916 -5.88117218 24.14865685 C-4.16282076 16.02679852 -2.30141208 7.97959609 0 0 Z M28.75 30.75 C25.13819783 37.45763261 24.65785104 45.4727228 25 53 C31.17754326 52.47647938 34.74237655 51.44321759 39.75 47.6875 C42.22799051 44.34221281 42.09559909 40.81259226 41.625 36.8125 C40.66467614 32.06015903 40.66467614 32.06015903 37 29 C33.34020985 28.45492487 31.70520453 28.45150759 28.75 30.75 Z " fill="#781213" transform="translate(283,79)"/>
<path d="M0 0 C1.24007812 -0.00128906 2.48015625 -0.00257812 3.7578125 -0.00390625 C5.05460937 -0.00003906 6.35140625 0.00382812 7.6875 0.0078125 C9.63269531 0.00201172 9.63269531 0.00201172 11.6171875 -0.00390625 C12.85726562 -0.00261719 14.09734375 -0.00132813 15.375 0 C17.08236328 0.00169189 17.08236328 0.00169189 18.82421875 0.00341797 C21.6875 0.1328125 21.6875 0.1328125 24.6875 1.1328125 C24.40472382 4.02976419 24.11162587 6.925042 23.8125 9.8203125 C23.73386719 10.63693359 23.65523437 11.45355469 23.57421875 12.29492188 C23.1172301 16.63631406 22.36393583 20.0870965 20.6875 24.1328125 C19.8878137 27.50608599 19.26926498 30.9144354 18.625 34.3203125 C15.90864197 48.30389284 12.90726073 62.2223403 9.89819336 76.14526367 C7.98733608 84.99765181 6.12055909 93.8536639 4.36230469 102.73779297 C3.32399447 107.9616504 2.23616181 113.17402245 1.125 118.3828125 C0.91681641 119.38699219 0.70863281 120.39117187 0.49414062 121.42578125 C0.28853516 122.38613281 0.08292969 123.34648437 -0.12890625 124.3359375 C-0.39876343 125.61452637 -0.39876343 125.61452637 -0.67407227 126.91894531 C-1.3125 129.1328125 -1.3125 129.1328125 -3.3125 132.1328125 C-5.92285156 132.48925781 -5.92285156 132.48925781 -9.203125 132.4609375 C-10.38777344 132.45578125 -11.57242188 132.450625 -12.79296875 132.4453125 C-14.03691406 132.4246875 -15.28085937 132.4040625 -16.5625 132.3828125 C-17.79097656 132.37765625 -19.01945312 132.3725 -20.28515625 132.3671875 C-29.4983226 132.2873334 -29.4983226 132.2873334 -33.48730469 131.53027344 C-36.90523173 131.04942439 -38.86065108 132.12351285 -41.98046875 133.41796875 C-49.63214402 135.76345715 -58.18600957 134.56408567 -65.3125 131.1328125 C-71.41904535 127.06178227 -76.10597255 121.12503839 -77.8515625 113.90234375 C-81.69453454 90.81194397 -77.14320144 68.64670236 -64.3125 49.1328125 C-57.86624979 40.52121955 -49.43980657 35.32514191 -38.703125 33.75 C-32.59346114 33.46538833 -27.48056526 34.83539663 -22.3125 38.1328125 C-19.875 40.8203125 -19.875 40.8203125 -18.3125 43.1328125 C-17.3225 43.6278125 -17.3225 43.6278125 -16.3125 44.1328125 C-16.37308594 42.97523437 -16.43367188 41.81765625 -16.49609375 40.625 C-16.49467384 33.37494064 -14.80878061 26.33123897 -13.375 19.2578125 C-13.09366608 17.83087387 -12.81306151 16.40379125 -12.53320312 14.9765625 C-10.49696602 4.68621057 -10.49696602 4.68621057 -9.3125 1.1328125 C-5.99253736 0.02615829 -3.49561401 0.00346394 0 0 Z M-36.3125 68.1328125 C-39.92931665 73.48724569 -41.30217344 79.45543307 -42.69921875 85.69140625 C-43.3125 88.1328125 -43.3125 88.1328125 -44.3125 89.1328125 C-44.99346227 95.23528208 -44.08383606 99.70561272 -41.3125 105.1328125 C-36.73672787 105.77427745 -36.73672787 105.77427745 -32.65234375 103.92578125 C-25.26306175 95.85615616 -23.20035001 85.64523811 -23.0625 75.0078125 C-23.03671875 73.80898437 -23.0109375 72.61015625 -22.984375 71.375 C-23.33493443 67.91113897 -23.8526484 66.54558561 -26.3125 64.1328125 C-30.89899446 63.16723472 -33.15815596 64.89758784 -36.3125 68.1328125 Z " fill="#781214" transform="translate(499.3125,70.8671875)"/>
<path d="M0 0 C1.19173828 -0.00128906 2.38347656 -0.00257812 3.61132812 -0.00390625 C4.85205078 -0.00003906 6.09277344 0.00382812 7.37109375 0.0078125 C8.61568359 0.00394531 9.86027344 0.00007813 11.14257812 -0.00390625 C12.92825195 -0.00197266 12.92825195 -0.00197266 14.75 0 C15.83998291 0.00112793 16.92996582 0.00225586 18.05297852 0.00341797 C20.80859375 0.1328125 20.80859375 0.1328125 23.80859375 1.1328125 C23.33732554 8.18558502 22.04699666 14.88870827 20.5078125 21.78125 C19.44350543 26.88278892 18.80859375 31.91234761 18.80859375 37.1328125 C19.73671875 36.6378125 20.66484375 36.1428125 21.62109375 35.6328125 C28.23659322 32.84523309 35.27724724 33.31691475 41.99609375 35.5703125 C49.64029781 39.07036142 54.36517862 44.9670249 57.30859375 52.7578125 C61.28438177 67.89775529 59.72397631 84.43768956 54.80859375 99.1328125 C54.35806641 100.525 54.35806641 100.525 53.8984375 101.9453125 C49.49479969 114.14586748 41.31289459 125.76873119 29.80859375 132.1328125 C22.56364548 135.03079181 13.79751885 135.45674392 6.37109375 132.8828125 C3.06139886 131.25699747 0.62280626 129.47798959 -2.19140625 127.1328125 C-4.37355193 126.35447716 -4.37355193 126.35447716 -6.19140625 126.1328125 C-6.48015625 126.7515625 -6.76890625 127.3703125 -7.06640625 128.0078125 C-8.19140625 130.1328125 -8.19140625 130.1328125 -10.19140625 132.1328125 C-12.68164063 132.37573242 -12.68164063 132.37573242 -15.78515625 132.36328125 C-16.89761719 132.36134766 -18.01007812 132.35941406 -19.15625 132.35742188 C-20.32285156 132.34517578 -21.48945312 132.33292969 -22.69140625 132.3203125 C-24.44130859 132.3193457 -24.44130859 132.3193457 -26.2265625 132.31835938 C-34.91087895 132.27307615 -34.91087895 132.27307615 -37.19140625 131.1328125 C-36.54108193 125.29571459 -35.54026981 119.63519974 -34.29296875 113.8984375 C-34.1022731 113.00763489 -33.91157745 112.11683228 -33.71510315 111.19903564 C-33.08524681 108.25963243 -32.4507759 105.32124466 -31.81640625 102.3828125 C-31.14150842 99.23829386 -30.4678323 96.0935149 -29.79417419 92.94873047 C-29.32302183 90.74975255 -28.85146738 88.55086075 -28.37953186 86.35205078 C-26.65819628 78.32880448 -24.95319114 70.30220678 -23.2578125 62.2734375 C-23.01641541 61.1303009 -22.77501831 59.98716431 -22.52630615 58.80938721 C-21.58360359 54.34361613 -20.64139028 49.87774216 -19.69976807 45.41174316 C-16.58448205 30.64011677 -13.41634258 15.88090292 -10.19140625 1.1328125 C-6.70857641 0.19130507 -3.61905926 0.00374118 0 0 Z M11.77734375 66.30078125 C5.45113473 75.40098272 1.9154903 87.05832973 2.80859375 98.1328125 C3.6257275 100.61727695 4.63351791 102.78266082 5.80859375 105.1328125 C9.20217114 105.44849412 11.31098494 105.38768531 14.37109375 103.8203125 C21.78102258 95.65039096 24.27079776 83.89941763 24.00390625 73.109375 C23.62324649 69.2570982 22.51916733 66.84338608 19.80859375 64.1328125 C15.98313733 63.55067783 14.48510784 63.4107638 11.77734375 66.30078125 Z " fill="#771113" transform="translate(868.19140625,70.8671875)"/>
<path d="M0 0 C11.22 0 22.44 0 34 0 C32.55099466 9.68136693 31.033916 19.28502112 28.95703125 28.8515625 C28.69465164 30.06039093 28.69465164 30.06039093 28.42697144 31.29364014 C27.70990916 34.57392057 26.98505343 37.85238844 26.25317383 41.12939453 C25.70886536 43.57675072 25.17610907 46.02641449 24.64453125 48.4765625 C24.47895218 49.20171051 24.31337311 49.92685852 24.14277649 50.67398071 C23.07366149 55.63852363 22.09694588 60.94888349 23 66 C24.43150398 67.75492045 24.43150398 67.75492045 26 69 C31.04783055 67.73804236 33.05988995 66.25357266 36 62 C41.0742102 50.42835987 43.18100337 37.68503821 45.6875 25.375 C46.27177069 22.53063224 46.85869188 19.68687657 47.45088196 16.84414673 C47.81536659 15.09222069 48.17515988 13.33930974 48.52946472 11.58529663 C48.69336197 10.79321808 48.85725922 10.00113953 49.02612305 9.18505859 C49.16648483 8.49527924 49.30684662 7.80549988 49.45146179 7.09481812 C50.08801214 4.66388953 51.06673653 2.33315868 52 0 C62.89 0 73.78 0 85 0 C82.70628005 18.34975964 82.70628005 18.34975964 80.65234375 27.30859375 C80.32720543 28.77414452 80.32720543 28.77414452 79.99549866 30.26930237 C79.31644691 33.32697093 78.62788459 36.38237214 77.9375 39.4375 C77.24451933 42.51781723 76.55383149 45.59858636 75.86878967 48.68067932 C75.44624102 50.5806348 75.01917634 52.47959409 74.58665466 54.37730408 C73.50115983 59.2457045 72.67468459 64.02982349 72.22557068 68.99940491 C71.84124649 72.40799106 70.98969084 75.68645189 70.125 79 C69.96386719 79.64710938 69.80273438 80.29421875 69.63671875 80.9609375 C68.33695314 86.0592429 66.71374535 91.02711677 65 96 C60.87536584 96.19622046 56.75028427 96.38050216 52.625 96.5625 C50.8615625 96.64661133 50.8615625 96.64661133 49.0625 96.73242188 C47.94101562 96.78076172 46.81953125 96.82910156 45.6640625 96.87890625 C44.10872803 96.94960327 44.10872803 96.94960327 42.52197266 97.02172852 C40 97 40 97 38 96 C38 95.34 38 94.68 38 94 C37.34 94 36.68 94 36 94 C36 93.34 36 92.68 36 92 C35.06800781 92.433125 34.13601563 92.86625 33.17578125 93.3125 C23.36996381 97.67366158 14.11599679 100.37829515 3.5 96.6875 C2.345 96.130625 1.19 95.57375 0 95 C-0.86625 94.608125 -1.7325 94.21625 -2.625 93.8125 C-8.61044666 89.24465913 -11.65763397 83.89374063 -12.7578125 76.484375 C-14.40135595 59.6248003 -9.56718154 42.64032174 -5.9375 26.3125 C-5.47275674 24.19868868 -5.00856028 22.08475706 -4.54492188 19.97070312 C-3.69978583 16.12598357 -2.85305929 12.28163657 -1.99975586 8.4387207 C-1.83035995 7.67566116 -1.66096405 6.91260162 -1.48643494 6.12641907 C-1.01783068 4.07794566 -0.50966155 2.03864621 0 0 Z " fill="#771112" transform="translate(747,107)"/>
<path d="M0 0 C0 0.66 0 1.32 0 2 C0.66 2 1.32 2 2 2 C7.23508046 8.40151748 9.32749155 14.80101504 9 23 C7.76944869 34.22068498 2.8746382 41.96459583 -5.625 49.25 C-14.77405131 53.99395253 -24.44582635 55.56271158 -34.56640625 56.60546875 C-37.16125647 56.9036256 -39.50455108 57.26977958 -42 58 C-42.66 60.31 -43.32 62.62 -44 65 C-33.88062646 68.05069349 -23.48888134 66.0246958 -14 62 C-12.96746094 61.43925781 -12.96746094 61.43925781 -11.9140625 60.8671875 C-10 60 -10 60 -6 60 C-5.88405416 63.93725326 -5.81283536 67.87406923 -5.75 71.8125 C-5.71648437 72.93205078 -5.68296875 74.05160156 -5.6484375 75.20507812 C-5.62910156 76.81479492 -5.62910156 76.81479492 -5.609375 78.45703125 C-5.5779541 79.9416687 -5.5779541 79.9416687 -5.54589844 81.45629883 C-6 84 -6 84 -7.85791016 85.77783203 C-12.27197977 88.29627658 -17.14749569 89.57279285 -22 91 C-23.15822266 91.34611328 -23.15822266 91.34611328 -24.33984375 91.69921875 C-36.69108198 94.75989466 -52.01539542 94.79876551 -63.34765625 88.74609375 C-71.41479059 83.80345886 -77.69114737 77.34197296 -80 68 C-83.62712569 49.83900705 -80.07661413 30.08314771 -70.125 14.5 C-66.85612007 9.89301781 -63.58518127 6.27372082 -59 3 C-58.36964844 2.48953125 -57.73929688 1.9790625 -57.08984375 1.453125 C-41.50378232 -10.31653634 -16.13110833 -10.63186685 0 0 Z M-37.4375 20.375 C-39.78807196 24.3239609 -40.34626345 28.49265855 -41 33 C-34.56054147 33.45189183 -31.32379836 32.69406417 -26 29 C-24.63047327 26.26094655 -24.87378639 24.02912668 -25 21 C-25.33 20.34 -25.66 19.68 -26 19 C-31.94528224 18.48170703 -31.94528224 18.48170703 -37.4375 20.375 Z " fill="#771213" transform="translate(601,112)"/>
<path d="M0 0 C0.495 0.495 0.495 0.495 1 1 C0.47132298 7.67203783 -0.71796901 14.13801671 -2.0625 20.6875 C-2.27366455 21.73188232 -2.4848291 22.77626465 -2.70239258 23.85229492 C-4.11522059 30.79651059 -5.57237533 37.73106407 -7.0390625 44.6640625 C-7.3042292 45.91854942 -7.3042292 45.91854942 -7.57475281 47.19837952 C-8.45633233 51.36652108 -9.34139415 55.53387112 -10.23266602 59.69995117 C-11.8760594 67.41741697 -13.43657681 75.1079422 -14.59887695 82.91674805 C-15 85 -15 85 -16 86 C-16.2819396 88.28684338 -16.44777005 90.57363273 -16.62109375 92.87109375 C-17 95 -17 95 -19 97 C-22.02514648 97.25878906 -22.02514648 97.25878906 -25.87109375 97.265625 C-26.88829247 97.26849518 -26.88829247 97.26849518 -27.92604065 97.27142334 C-29.36093517 97.27278481 -30.79584201 97.26909099 -32.23071289 97.26074219 C-34.42557542 97.25005805 -36.6196164 97.26062956 -38.81445312 97.2734375 C-40.20833514 97.27211557 -41.60221664 97.26955249 -42.99609375 97.265625 C-44.26638428 97.26336914 -45.5366748 97.26111328 -46.84545898 97.25878906 C-50 97 -50 97 -53 95 C-50.64133201 82.95691876 -48.16726649 70.94208037 -45.57055664 58.94799805 C-44.12620778 52.27397157 -42.70339952 45.59658015 -41.3150177 38.91070557 C-40.51850295 35.07988482 -39.71465864 31.25061724 -38.9102478 27.42144775 C-38.51359364 25.52430396 -38.1201902 23.62647744 -37.73013306 21.72796631 C-37.17887982 19.0472502 -36.61603423 16.36920019 -36.05078125 13.69140625 C-35.88843994 12.88736862 -35.72609863 12.08333099 -35.55883789 11.25492859 C-34.65061659 7.01268538 -33.68041628 3.52547149 -31 0 C-28.80078125 -0.453125 -28.80078125 -0.453125 -26.3125 -0.25 C-23.05456256 -0.07630593 -20.45201891 -0.08084967 -17.1875 -0.5625 C-11.49885667 -1.39355695 -5.67249181 -0.74966852 0 0 Z " fill="#771213" transform="translate(416,106)"/>
<path d="M0 0 C1.37201317 -0.00807426 1.37201317 -0.00807426 2.77174377 -0.01631165 C3.77470993 -0.01471542 4.77767609 -0.0131192 5.81103516 -0.01147461 C6.84763779 -0.00991867 7.88424042 -0.00836273 8.95225525 -0.00675964 C60.41082152 0.24145709 60.41082152 0.24145709 75.87353516 11.42602539 C78.27624034 14.95911719 78.29335425 17.84940254 78.03759766 21.96118164 C78.00375977 23.00048828 78.00375977 23.00048828 77.96923828 24.06079102 C77.91072427 25.75769737 77.82105245 27.45348025 77.72509766 29.14868164 C75.10002964 29.17559008 72.47523592 29.19547569 69.85009766 29.21118164 C69.10373047 29.21956055 68.35736328 29.22793945 67.58837891 29.23657227 C61.95166016 29.26196289 61.95166016 29.26196289 59.72509766 28.14868164 C59.82822266 27.09680664 59.93134766 26.04493164 60.03759766 24.96118164 C60.08043169 21.03631344 60.08043169 21.03631344 57.41259766 18.33618164 C52.73020234 14.52492964 49.69519681 13.54470274 43.72509766 14.14868164 C40.84294879 15.03083051 40.84294879 15.03083051 38.72509766 16.14868164 C38.72509766 16.80868164 38.72509766 17.46868164 38.72509766 18.14868164 C38.27134766 18.51993164 37.81759766 18.89118164 37.35009766 19.27368164 C34.92527745 21.78609405 34.92527745 21.78609405 33.72509766 29.14868164 C14.58509766 29.14868164 -4.55490234 29.14868164 -24.27490234 29.14868164 C-27.27490234 21.14868164 -27.27490234 21.14868164 -27.27490234 18.14868164 C-28.26490234 17.81868164 -29.25490234 17.48868164 -30.27490234 17.14868164 C-30.27490234 16.48868164 -30.27490234 15.82868164 -30.27490234 15.14868164 C-34.289145 13.81060076 -38.08916258 13.9493607 -42.27490234 14.14868164 C-43.26490234 14.80868164 -44.25490234 15.46868164 -45.27490234 16.14868164 C-46.26490234 16.14868164 -47.25490234 16.14868164 -48.27490234 16.14868164 C-48.60490234 17.79868164 -48.93490234 19.44868164 -49.27490234 21.14868164 C-49.93490234 21.14868164 -50.59490234 21.14868164 -51.27490234 21.14868164 C-51.60490234 23.78868164 -51.93490234 26.42868164 -52.27490234 29.14868164 C-55.90490234 29.14868164 -59.53490234 29.14868164 -63.27490234 29.14868164 C-63.35561834 25.04412399 -63.41527047 20.94114328 -63.46240234 16.83618164 C-63.48753906 15.66893555 -63.51267578 14.50168945 -63.53857422 13.29907227 C-63.55307617 11.62167969 -63.55307617 11.62167969 -63.56787109 9.91040039 C-63.58358154 8.87874756 -63.59929199 7.84709473 -63.61547852 6.78417969 C-63.27490234 4.14868164 -63.27490234 4.14868164 -62.08946228 2.5042572 C-59.60564247 0.64870789 -57.98443172 0.7931308 -54.90136719 0.82397461 C-53.25483658 0.82915604 -53.25483658 0.82915604 -51.57504272 0.83444214 C-50.39060577 0.85306305 -49.20616882 0.87168396 -47.98583984 0.89086914 C-46.16459091 0.90079391 -46.16459091 0.90079391 -44.30654907 0.91091919 C-40.42074523 0.93437223 -36.53550454 0.97810976 -32.64990234 1.02368164 C-28.75722674 1.05866875 -24.86458103 1.08944742 -20.97183228 1.11502075 C-18.54679224 1.13208445 -16.12178669 1.15529528 -13.6968689 1.18502808 C-12.60548615 1.19478668 -11.51410339 1.20454529 -10.38964844 1.21459961 C-9.42384857 1.22586884 -8.45804871 1.23713806 -7.46298218 1.24874878 C-4.66039281 1.12057837 -3.09746212 0.01595391 0 0 Z " fill="#761112" transform="translate(124.27490234375,135.851318359375)"/>
<path d="M0 0 C1.06856232 -0.02882263 2.13712463 -0.05764526 3.23806763 -0.08734131 C4.3891098 -0.10009094 5.54015198 -0.11284058 6.72607422 -0.12597656 C7.91748016 -0.14307678 9.10888611 -0.160177 10.33639526 -0.17779541 C12.85976175 -0.20613602 15.38323913 -0.22574373 17.90673828 -0.23730469 C21.74695833 -0.26634593 25.58230341 -0.35935812 29.42138672 -0.45410156 C31.87708738 -0.47370147 34.3328224 -0.48944905 36.78857422 -0.50097656 C37.92747101 -0.53801697 39.0663678 -0.57505737 40.23977661 -0.61322021 C46.80508969 -0.55886546 50.30367433 0.42505701 55.26220703 4.85766602 C56.75013898 6.37699517 58.21765477 7.91682543 59.65576172 9.48339844 C60.70362151 10.48925783 61.7571307 11.48931759 62.81982422 12.47949219 C63.63193359 13.28515625 64.44404297 14.09082031 65.28076172 14.92089844 C66.11865234 15.74460938 66.95654297 16.56832031 67.81982422 17.41699219 C69.65576172 19.48339844 69.65576172 19.48339844 69.65576172 21.48339844 C40.94576172 21.48339844 12.23576172 21.48339844 -17.34423828 21.48339844 C-16.41724771 16.84844558 -15.23613164 13.96508414 -13.03173828 9.85839844 C-12.14035156 8.1684375 -12.14035156 8.1684375 -11.23095703 6.44433594 C-8.1676104 1.63684786 -5.68771965 0.12420495 0 0 Z " fill="#761011" transform="translate(95.34423828125,112.5166015625)"/>
<path d="M0 0 C3.06003253 3.06003253 3.76613475 5.71247051 4 10 C3.59743519 17.20264604 2.21221557 21.82223324 -3.1484375 26.7578125 C-7.09943088 29.40847894 -11.21698066 29.18989652 -15.875 29.25 C-17.66550781 29.28867188 -17.66550781 29.28867188 -19.4921875 29.328125 C-24.39958089 28.86908152 -27.4976166 27.17185905 -31.34375 24.171875 C-34.52156132 20.00474506 -33.62561655 14.97939704 -33 10 C-31.68231788 5.41032072 -29.83317539 2.70357033 -26.1875 -0.375 C-17.56591126 -4.77031975 -8.35700772 -5.50339533 0 0 Z " fill="#761112" transform="translate(420,72)"/>
<path d="M0 0 C23.24069599 5.36104398 23.24069599 5.36104398 27 11 C27.14221065 13.60245498 27.18802932 16.09117684 27.125 18.6875 C27.11597656 19.38939453 27.10695312 20.09128906 27.09765625 20.81445312 C27.07413704 22.54311525 27.03826713 24.27160145 27 26 C24.37493198 26.02690844 21.75013827 26.04679404 19.125 26.0625 C18.37863281 26.07087891 17.63226563 26.07925781 16.86328125 26.08789062 C11.2265625 26.11328125 11.2265625 26.11328125 9 25 C9.103125 23.948125 9.20625 22.89625 9.3125 21.8125 C9.35533404 17.8876318 9.35533404 17.8876318 6.6875 15.1875 C2.00510469 11.376248 -1.02990085 10.3960211 -7 11 C-9.88214887 11.88214887 -9.88214887 11.88214887 -12 13 C-12 13.66 -12 14.32 -12 15 C-12.99 15.33 -13.98 15.66 -15 16 C-15 14.02 -15 12.04 -15 10 C-13.948125 9.87625 -12.89625 9.7525 -11.8125 9.625 C-8.09963555 9.15746422 -8.09963555 9.15746422 -5.1875 7.875 C-4.465625 7.58625 -3.74375 7.2975 -3 7 C-2.34 7.33 -1.68 7.66 -1 8 C-1 7.34 -1 6.68 -1 6 C1.64 6.33 4.28 6.66 7 7 C6.67 6.34 6.34 5.68 6 5 C5.01 5.495 5.01 5.495 4 6 C4 5.34 4 4.68 4 4 C2.68 3.34 1.36 2.68 0 2 C0 1.34 0 0.68 0 0 Z " fill="#750E11" transform="translate(175,139)"/>
<path d="M0 0 C3.04739688 1.31592138 4.6866919 2.64491749 6.875 5.125 C8.50229587 9.283645 8.1426107 12.72519775 7 17 C5.29565275 19.84057875 4.09168358 20.7082042 0.91015625 21.55859375 C-2.8237488 22.16123733 -5.3188079 22.26655343 -8.875 20.875 C-13.82695509 16.50562786 -14.46538322 12.30847804 -15 6 C-14.34 6 -13.68 6 -13 6 C-12.67 5.01 -12.34 4.02 -12 3 C-8.05012476 -0.13666564 -4.96407116 -0.53186477 0 0 Z " fill="#78191C" transform="translate(89,152)"/>
<path d="M0 0 C3.48740188 2.80929596 4.98181654 5.27044512 5.75 9.6875 C5.05746057 14.01587145 3.70649292 17.02278066 0.25 19.8125 C-3.88941023 21.06970375 -7.85491277 21.53283511 -11.94921875 19.9765625 C-14.81110164 18.12658181 -15.56424673 15.95474617 -16.75 12.8125 C-17.27425165 7.83210936 -16.91066492 4.76333115 -13.75 0.8125 C-9.62197124 -2.28352157 -4.58439719 -1.97962606 0 0 Z " fill="#771315" transform="translate(177.75,153.1875)"/>
<path d="M0 0 C3 1 3 1 4 3 C4.1393329 7.33603979 4.04254111 11.66080671 4 16 C-0.62 16 -5.24 16 -10 16 C-10.33 13.03 -10.66 10.06 -11 7 C-9.68 6.67 -8.36 6.34 -7 6 C-6.01 5.67 -5.02 5.34 -4 5 C-3.26676204 2.98491642 -3.26676204 2.98491642 -3 1 C-2.34 1 -1.68 1 -1 1 C-0.67 1.99 -0.34 2.98 0 4 C0 2.68 0 1.36 0 0 Z " fill="#760F10" transform="translate(196,147)"/>
<path d="M0 0 C0.70394612 1.31403276 1.36345658 2.6520257 2 4 C4.42205929 6.61844248 6.82490845 8.86969931 9.6875 11 C12.22592982 13.19539877 13.03068679 14.82770221 14 18 C13.01 17.154375 12.02 16.30875 11 15.4375 C10.36449219 14.89480469 9.72898437 14.35210937 9.07421875 13.79296875 C7.66992603 12.5790886 6.27692167 11.35204669 4.89453125 10.11328125 C3.86392578 9.19095703 3.86392578 9.19095703 2.8125 8.25 C2.17957031 7.67765625 1.54664063 7.1053125 0.89453125 6.515625 C-2.90447711 3.47641831 -5.7338755 2.75105349 -10.59472656 2.77294922 C-11.71558655 2.77310028 -12.83644653 2.77325134 -13.99127197 2.77340698 C-15.19555847 2.78372955 -16.39984497 2.79405212 -17.640625 2.8046875 C-18.87794373 2.8075174 -20.11526245 2.81034729 -21.39007568 2.81326294 C-24.67151541 2.822558 -27.95275754 2.84051295 -31.23413086 2.8626709 C-34.58575622 2.88316952 -37.93739007 2.89210276 -41.2890625 2.90234375 C-47.85945223 2.9243997 -54.42970996 2.95787418 -61 3 C-61 2.34 -61 1.68 -61 1 C-54.53380333 0.06049176 -48.16957112 -0.22425445 -41.640625 -0.3515625 C-40.57382507 -0.37471527 -39.50702515 -0.39786804 -38.40789795 -0.42172241 C-36.16569274 -0.46911665 -33.92344154 -0.51437834 -31.68115234 -0.55761719 C-28.24688074 -0.62506126 -24.81294133 -0.70276898 -21.37890625 -0.78125 C-19.19532514 -0.82614004 -17.01173163 -0.87043174 -14.828125 -0.9140625 C-13.80205139 -0.93796051 -12.77597778 -0.96185852 -11.71881104 -0.98648071 C-10.76391785 -1.0033493 -9.80902466 -1.0202179 -8.82519531 -1.03759766 C-7.98772766 -1.05456696 -7.15026001 -1.07153625 -6.28741455 -1.08901978 C-4.02087294 -1.00081232 -2.14333987 -0.74049351 0 0 Z " fill="#621512" transform="translate(149,108)"/>
<path d="M0 0 C1.08470078 -0.01583633 2.16940155 -0.03167267 3.28697205 -0.04798889 C5.03706322 -0.04054909 5.03706322 -0.04054909 6.82250977 -0.03295898 C8.62740623 -0.04225685 8.62740623 -0.04225685 10.46876526 -0.05174255 C13.01318553 -0.05884593 15.55765223 -0.05565782 18.10205078 -0.04296875 C21.99606909 -0.02911622 25.88767933 -0.06315577 29.78149414 -0.10131836 C32.25349994 -0.10226965 34.72550874 -0.1004102 37.19750977 -0.09545898 C38.36221298 -0.10871719 39.5269162 -0.1219754 40.72691345 -0.13563538 C49.71458378 -0.03208877 49.71458378 -0.03208877 52.85009766 3.07275391 C53.70462524 4.29079712 53.70462524 4.29079712 54.57641602 5.53344727 C53.25641602 5.53344727 51.93641602 5.53344727 50.57641602 5.53344727 C50.57641602 4.87344727 50.57641602 4.21344727 50.57641602 3.53344727 C41.99641602 3.53344727 33.41641602 3.53344727 24.57641602 3.53344727 C24.57641602 7.49344727 24.57641602 11.45344727 24.57641602 15.53344727 C23.91641602 15.53344727 23.25641602 15.53344727 22.57641602 15.53344727 C22.08141602 9.09844727 22.08141602 9.09844727 21.57641602 2.53344727 C18.09705985 2.67552349 14.61797952 2.82200333 11.13891602 2.97094727 C9.67808594 3.02992187 9.67808594 3.02992187 8.18774414 3.09008789 C2.27580003 3.34712894 -3.55004395 3.81064348 -9.42358398 4.53344727 C-6.39509316 0.94770545 -4.68002898 0.03043684 0 0 Z " fill="#631F1F" transform="translate(95.423583984375,112.466552734375)"/>
<path d="M0 0 C1.77206192 0.00015919 3.54412846 0.00585754 5.31616211 0.01586914 C6.24698105 0.01728409 7.17779999 0.01869904 8.13682556 0.02015686 C11.12241777 0.02577367 14.10793615 0.03832899 17.09350586 0.05102539 C19.11238499 0.05603823 21.13126529 0.06060151 23.15014648 0.06469727 C28.11046158 0.07574856 33.07072118 0.09302444 38.03100586 0.11352539 C38.03100586 0.44352539 38.03100586 0.77352539 38.03100586 1.11352539 C22.68600586 1.60852539 22.68600586 1.60852539 7.03100586 2.11352539 C7.03100586 2.77352539 7.03100586 3.43352539 7.03100586 4.11352539 C4.06100586 4.11352539 1.09100586 4.11352539 -1.96899414 4.11352539 C-3.25346333 6.68246377 -3.29876558 8.87928876 -3.53149414 11.73852539 C-3.6152832 12.74141602 -3.69907227 13.74430664 -3.78540039 14.77758789 C-3.84598633 15.54844727 -3.90657227 16.31930664 -3.96899414 17.11352539 C-4.29899414 17.11352539 -4.62899414 17.11352539 -4.96899414 17.11352539 C-4.99584093 14.46762525 -5.01575771 11.82199443 -5.03149414 9.17602539 C-5.03987305 8.4212793 -5.04825195 7.6665332 -5.05688477 6.88891602 C-5.06551855 4.96358226 -5.02123747 3.03816958 -4.96899414 1.11352539 C-3.96899414 0.11352539 -3.96899414 0.11352539 0 0 Z " fill="#6C2322" transform="translate(79.968994140625,136.886474609375)"/>
<path d="M0 0 C0.88380341 0.02220612 1.76760681 0.04441223 2.67819214 0.06729126 C3.67907867 0.08746307 4.67996521 0.10763489 5.71118164 0.12841797 C6.79454803 0.16061432 7.87791443 0.19281067 8.99411011 0.22598267 C10.10108246 0.25100861 11.20805481 0.27603455 12.34857178 0.30181885 C15.89478404 0.38419003 19.44045352 0.48071395 22.98629761 0.57754517 C25.3860148 0.63576718 27.78575446 0.69307081 30.18551636 0.74942017 C36.07774587 0.88979425 41.9695906 1.04179894 47.86129761 1.20254517 C47.86129761 1.53254517 47.86129761 1.86254517 47.86129761 2.20254517 C32.02129761 2.53254517 16.18129761 2.86254517 -0.13870239 3.20254517 C-1.1894171 7.40540398 -1.48511489 11.33671568 -1.75979614 15.64395142 C-2.13870239 18.20254517 -2.13870239 18.20254517 -4.13870239 21.20254517 C-4.19662083 18.07762265 -4.23226985 14.95283751 -4.26370239 11.82754517 C-4.28046021 10.93809204 -4.29721802 10.04863892 -4.31448364 9.13223267 C-4.32092896 8.28145142 -4.32737427 7.43067017 -4.33401489 6.55410767 C-4.34448853 5.76858521 -4.35496216 4.98306274 -4.36575317 4.17373657 C-4.02422549 1.20868869 -2.9367004 0.27811933 0 0 Z " fill="#662B29" transform="translate(122.13870239257813,135.79745483398438)"/>
<path d="M0 0 C1.32 0 2.64 0 4 0 C3.34 3.3 2.68 6.6 2 10 C-17.14 10 -36.28 10 -56 10 C-56 9.67 -56 9.34 -56 9 C-50.06 9 -44.12 9 -38 9 C-38 7.35 -38 5.7 -38 4 C-37.67 4.99 -37.34 5.98 -37 7 C-33.33043403 8.22318866 -29.87678997 8.23116124 -26.05078125 8.31640625 C-25.27816452 8.33718735 -24.50554779 8.35796844 -23.70951843 8.37937927 C-21.2439352 8.44471038 -18.77824639 8.50368315 -16.3125 8.5625 C-14.63996309 8.60570087 -12.96743681 8.64931566 -11.29492188 8.69335938 C-7.1967225 8.8003749 -3.09841704 8.90168857 1 9 C0.34 8.01 -0.32 7.02 -1 6 C-0.625 2.8125 -0.625 2.8125 0 0 Z " fill="#602728" transform="translate(156,155)"/>
<path d="M0 0 C0.33 0.33 0.66 0.66 1 1 C0.91062197 2.52519276 0.75462854 4.04681929 0.5625 5.5625 C0.46066406 6.38878906 0.35882813 7.21507813 0.25390625 8.06640625 C0.17011719 8.70449219 0.08632813 9.34257813 0 10 C-0.33 9.34 -0.66 8.68 -1 8 C-2.98 8 -4.96 8 -7 8 C-7.66 6.35 -8.32 4.7 -9 3 C-10.0209375 3.061875 -10.0209375 3.061875 -11.0625 3.125 C-14.59924168 2.97450035 -17.63323033 2.05624147 -21 1 C-21 0.67 -21 0.34 -21 0 C-13.92298598 -1.24888483 -7.12031281 -0.9410105 0 0 Z " fill="#7B1A1C" transform="translate(416,106)"/>
<path d="M0 0 C1.08622755 3.25868265 0.91122669 4.39204274 0.22265625 7.66796875 C0.03896484 8.56064453 -0.14472656 9.45332031 -0.33398438 10.37304688 C-0.53314453 11.30181641 -0.73230469 12.23058594 -0.9375 13.1875 C-1.13279297 14.12787109 -1.32808594 15.06824219 -1.52929688 16.03710938 C-2.01265881 18.35960454 -2.5031383 20.68036206 -3 23 C-3.33 23 -3.66 23 -4 23 C-4.103125 22.21625 -4.20625 21.4325 -4.3125 20.625 C-4.77595022 17.66954819 -4.77595022 17.66954819 -8 16 C-8 15.34 -8 14.68 -8 14 C-7.34 14 -6.68 14 -6 14 C-5.95101562 13.38511719 -5.90203125 12.77023438 -5.8515625 12.13671875 C-5.77679687 11.32847656 -5.70203125 10.52023438 -5.625 9.6875 C-5.52058594 8.48673828 -5.52058594 8.48673828 -5.4140625 7.26171875 C-5 5 -5 5 -3 2 C-2.01 2 -1.02 2 0 2 C0 1.34 0 0.68 0 0 Z " fill="#771818" transform="translate(720,135)"/>
<path d="M0 0 C3.65316671 1.24976756 4.78065836 1.67098753 7 5 C7.14269866 7.6113854 7.18772704 10.08377289 7.125 12.6875 C7.08375 15.100625 7.0425 17.51375 7 20 C1.72 20 -3.56 20 -9 20 C-8.505 18.515 -8.505 18.515 -8 17 C-3.71 17.33 0.58 17.66 5 18 C4.855625 15.89625 4.71125 13.7925 4.5625 11.625 C4.48128906 10.44164062 4.40007812 9.25828125 4.31640625 8.0390625 C4.18915064 5.08481099 4.18915064 5.08481099 3 3 C2.01 2.67 1.02 2.34 0 2 C0 1.34 0 0.68 0 0 Z " fill="#5A181B" transform="translate(195,145)"/>
<path d="M0 0 C0.66 0 1.32 0 2 0 C0.54618781 12.52014382 -2.22271911 24.71965743 -5 37 C-5.33 37 -5.66 37 -6 37 C-6.20413361 31.26157749 -6.27141454 26.39460953 -4 21 C-4.66 20.67 -5.32 20.34 -6 20 C-4.89371433 16.59604409 -3.70472547 13.25866267 -2.375 9.9375 C-1.18076347 6.82054267 -0.79603127 4.365484 -1 1 C-0.67 0.67 -0.34 0.34 0 0 Z " fill="#813F40" transform="translate(409,138)"/>
<path d="M0 0 C-1.32 0.33 -2.64 0.66 -4 1 C-4 0.34 -4 -0.32 -4 -1 C-12.58 -1 -21.16 -1 -30 -1 C-30 2.96 -30 6.92 -30 11 C-30.66 11 -31.32 11 -32 11 C-32.02685938 8.85423363 -32.04633088 6.70837355 -32.0625 4.5625 C-32.07410156 3.36753906 -32.08570312 2.17257813 -32.09765625 0.94140625 C-32 -2 -32 -2 -31 -3 C-26.95297617 -3.4702663 -22.88049255 -3.61080009 -18.8125 -3.8125 C-17.67490234 -3.88919922 -16.53730469 -3.96589844 -15.36523438 -4.04492188 C-8.89375612 -4.35848445 -4.88950821 -4.47264072 0 0 Z " fill="#802E2F" transform="translate(150,117)"/>
<path d="M0 0 C4.98469052 -0.29321709 8.04820644 -0.18338925 12 3 C14.87361783 6.66633999 15.51404128 9.3736285 15 14 C14.34 14.66 13.68 15.32 13 16 C12.731875 15.08476562 12.46375 14.16953125 12.1875 13.2265625 C10.34374192 6.54951272 10.34374192 6.54951272 5.88671875 1.69140625 C3.46321688 1.06915623 3.46321688 1.06915623 0 1 C0 0.67 0 0.34 0 0 Z " fill="#712127" transform="translate(168,152)"/>
<path d="M0 0 C1.7074998 1.28062485 3.37373596 2.61767557 5 4 C5 4.66 5 5.32 5 6 C-10.18 6 -25.36 6 -41 6 C-41 5.67 -41 5.34 -41 5 C-26.81 5 -12.62 5 2 5 C1.34 3.35 0.68 1.7 0 0 Z " fill="#5E1A1A" transform="translate(160,128)"/>
<path d="M0 0 C0.33 0 0.66 0 1 0 C1 2.97 1 5.94 1 9 C0.34 9 -0.32 9 -1 9 C-1 8.34 -1 7.68 -1 7 C-5.95 8.98 -10.9 10.96 -16 13 C-16.66 12.34 -17.32 11.68 -18 11 C-17.01 11 -16.02 11 -15 11 C-15 10.34 -15 9.68 -15 9 C-13.63875 8.8453125 -13.63875 8.8453125 -12.25 8.6875 C-8.92314849 7.98374295 -7.59671135 7.05946072 -5 5 C-4.01 5 -3.02 5 -2 5 C-1.34 3.35 -0.68 1.7 0 0 Z " fill="#A05050" transform="translate(784,192)"/>
<path d="M0 0 C6.27 0 12.54 0 19 0 C19.33 1.32 19.66 2.64 20 4 C18.5625 6.25 18.5625 6.25 17 8 C16.87625 7.360625 16.7525 6.72125 16.625 6.0625 C16.41875 5.381875 16.2125 4.70125 16 4 C12.32660091 2.16330045 7.92399641 2.58754417 3.87109375 2.37890625 C2.92363281 2.25386719 1.97617187 2.12882813 1 2 C0.67 1.34 0.34 0.68 0 0 Z " fill="#9A4141" transform="translate(663,152)"/>
<path d="M0 0 C10.23 0 20.46 0 31 0 C31 0.33 31 0.66 31 1 C21.1 1.495 21.1 1.495 11 2 C10.67 2.66 10.34 3.32 10 4 C7 4 7 4 5.3125 2.5 C4.879375 2.005 4.44625 1.51 4 1 C4 1.66 4 2.32 4 3 C4.66 3.33 5.32 3.66 6 4 C4.68 4 3.36 4 2 4 C1.34 2.68 0.68 1.36 0 0 Z " fill="#6E1413" transform="translate(121,138)"/>
<path d="M0 0 C1.67542976 0.28604898 3.34385343 0.61781233 5 1 C2.8904832 2.13009829 1.27055086 2.96817049 -1.125 3.25 C-1.74375 3.4975 -2.3625 3.745 -3 4 C-4.3045656 6.99615946 -4.3045656 6.99615946 -5 10 C-7.0625 8.3125 -7.0625 8.3125 -9 6 C-8.75 3.25 -8.75 3.25 -8 1 C-6.865625 1.020625 -5.73125 1.04125 -4.5625 1.0625 C-1.18424326 1.41577477 -1.18424326 1.41577477 0 0 Z " fill="#9C4D4E" transform="translate(562,166)"/>
<path d="M0 0 C0.33 0 0.66 0 1 0 C-0.60764588 18.60764588 -0.60764588 18.60764588 -2 20 C-2.23192865 21.51469448 -2.41215238 23.03754562 -2.5625 24.5625 C-2.64628906 25.38878906 -2.73007812 26.21507813 -2.81640625 27.06640625 C-2.87699219 27.70449219 -2.93757812 28.34257813 -3 29 C-3.99 29.33 -4.98 29.66 -6 30 C-5.19099794 25.56185484 -4.37720308 21.12460187 -3.5625 16.6875 C-3.33240234 15.42486328 -3.10230469 14.16222656 -2.86523438 12.86132812 C-2.64287109 11.65283203 -2.42050781 10.44433594 -2.19140625 9.19921875 C-1.98717041 8.08377686 -1.78293457 6.96833496 -1.57250977 5.8190918 C-1 3 -1 3 0 0 Z " fill="#854648" transform="translate(856,81)"/>
<path d="M0 0 C0.66 0.99 1.32 1.98 2 3 C1.34 3.66 0.68 4.32 0 5 C0 4.34 0 3.68 0 3 C-0.598125 3.66 -1.19625 4.32 -1.8125 5 C-4 7 -4 7 -7 7 C-7.0825 7.5775 -7.165 8.155 -7.25 8.75 C-8.20918964 11.62756891 -9.83980195 12.9052625 -12 15 C-13.23512079 17.13309192 -13.23512079 17.13309192 -14 19 C-14.66 18.67 -15.32 18.34 -16 18 C-11.68992278 10.60867609 -6.60750861 5.37820468 0 0 Z " fill="#76272C" transform="translate(447,109)"/>
<path d="M0 0 C0.78375 0.639375 1.5675 1.27875 2.375 1.9375 C6.6696258 5.31184884 9.83850693 5.1218475 15.125 5.0625 C16.25615234 5.05573242 16.25615234 5.05573242 17.41015625 5.04882812 C19.27347127 5.03703499 21.13674555 5.01909942 23 5 C23 5.66 23 6.32 23 7 C19.75007554 7.05819424 16.50028565 7.09366116 13.25 7.125 C12.32960938 7.14175781 11.40921875 7.15851563 10.4609375 7.17578125 C9.57148437 7.18222656 8.68203125 7.18867188 7.765625 7.1953125 C6.54020996 7.21102295 6.54020996 7.21102295 5.29003906 7.22705078 C2.78112482 6.97829916 1.16604375 6.25700129 -1 5 C-0.67 3.35 -0.34 1.7 0 0 Z " fill="#712224" transform="translate(554,173)"/>
<path d="M0 0 C0.99 0.33 1.98 0.66 3 1 C3.33 2.65 3.66 4.3 4 6 C5.32 6.33 6.64 6.66 8 7 C8 7.99 8 8.98 8 10 C7.34 10 6.68 10 6 10 C6 11.65 6 13.3 6 15 C6.66 15.33 7.32 15.66 8 16 C7.01 16 6.02 16 5 16 C4.80664062 15.34773437 4.61328125 14.69546875 4.4140625 14.0234375 C3.01359552 9.3228602 1.58791274 4.64159109 0 0 Z " fill="#8D4142" transform="translate(311,177)"/>
<path d="M0 0 C1.485 0.99 1.485 0.99 3 2 C2.84402344 2.54527344 2.68804687 3.09054688 2.52734375 3.65234375 C1.7273206 7.21392828 1.61081519 10.80487674 1.37890625 14.44140625 C1 17 1 17 -1 20 C-1.02888514 16.85418577 -1.04675923 13.70840531 -1.0625 10.5625 C-1.07087891 9.66466797 -1.07925781 8.76683594 -1.08789062 7.84179688 C-1.09111328 6.98779297 -1.09433594 6.13378906 -1.09765625 5.25390625 C-1.10551147 4.06776733 -1.10551147 4.06776733 -1.11352539 2.85766602 C-1 1 -1 1 0 0 Z " fill="#882827" transform="translate(119,137)"/>
<path d="M0 0 C1 3 1 3 -0.43359375 6.13671875 C-1.09135973 7.3260128 -1.75977815 8.50946371 -2.4375 9.6875 C-2.77587891 10.29400391 -3.11425781 10.90050781 -3.46289062 11.52539062 C-4.29957915 13.0220025 -5.14862831 14.51169189 -6 16 C-7.48838509 11.53484472 -5.87834002 8.19596924 -4 4 C-1.8125 1.4375 -1.8125 1.4375 0 0 Z " fill="#5E1D1F" transform="translate(83,113)"/>
<path d="M0 0 C-0.33 2.31 -0.66 4.62 -1 7 C-1.33 7 -1.66 7 -2 7 C-2 5.35 -2 3.7 -2 2 C-10.25 2 -18.5 2 -27 2 C-27 1.67 -27 1.34 -27 1 C-24.00013007 0.8306525 -21.00013908 0.66445207 -18 0.5 C-17.16082031 0.45230469 -16.32164062 0.40460938 -15.45703125 0.35546875 C-10.29532696 0.07537627 -5.16925753 -0.0478635 0 0 Z " fill="#732429" transform="translate(781,107)"/>
<path d="M0 0 C2.08304538 -0.05418326 4.16649768 -0.09287551 6.25 -0.125 C7.99023438 -0.15980469 7.99023438 -0.15980469 9.765625 -0.1953125 C12.82786046 -0.0103949 14.44202751 0.39176977 17 2 C17 2.33 17 2.66 17 3 C14.72975032 3.08097324 12.45867925 3.13917704 10.1875 3.1875 C8.29064453 3.23970703 8.29064453 3.23970703 6.35546875 3.29296875 C3 3 3 3 1.05078125 1.48828125 C0.70402344 0.99714844 0.35726563 0.50601563 0 0 Z " fill="#803939" transform="translate(394,98)"/>
<path d="M0 0 C0.66 0 1.32 0 2 0 C1.67 1.32 1.34 2.64 1 4 C2.32 4.66 3.64 5.32 5 6 C3.35 6.33 1.7 6.66 0 7 C0.18828772 9.44480079 0.18828772 9.44480079 1 12 C2.96758273 13.36020151 2.96758273 13.36020151 5 14 C5 14.33 5 14.66 5 15 C2.69 14.67 0.38 14.34 -2 14 C-1.43393721 9.30976546 -0.81462495 4.65499974 0 0 Z " fill="#763A3C" transform="translate(833,188)"/>
<path d="M0 0 C3.33855319 2.99318562 5.27398609 5.85756662 7 10 C7 11.32 7 12.64 7 14 C6.34 14 5.68 14 5 14 C3.68 11.36 2.36 8.72 1 6 C0.01 6 -0.98 6 -2 6 C-1.49396008 3.83125748 -1.00016187 2.00032373 0 0 Z " fill="#721B20" transform="translate(602,114)"/>
<path d="M0 0 C1.63001953 0.01353516 1.63001953 0.01353516 3.29296875 0.02734375 C4.12441406 0.03894531 4.95585937 0.05054688 5.8125 0.0625 C5.8125 0.3925 5.8125 0.7225 5.8125 1.0625 C5.19761719 1.19527344 4.58273438 1.32804688 3.94921875 1.46484375 C2.73685547 1.72974609 2.73685547 1.72974609 1.5 2 C0.69949219 2.17402344 -0.10101563 2.34804687 -0.92578125 2.52734375 C-3.332901 3.06136159 -3.332901 3.06136159 -6.1875 4.0625 C-6.1875 4.7225 -6.1875 5.3825 -6.1875 6.0625 C-7.1775 6.3925 -8.1675 6.7225 -9.1875 7.0625 C-9.1875 5.0825 -9.1875 3.1025 -9.1875 1.0625 C-5.90230525 -0.03256492 -3.45086585 -0.03710608 0 0 Z " fill="#681E22" transform="translate(169.1875,147.9375)"/>
<path d="M0 0 C2.60607392 0.61778047 5.20965697 1.24387211 7.8125 1.875 C8.55048828 2.04902344 9.28847656 2.22304687 10.04882812 2.40234375 C13.49717037 3.24492511 16.01928362 4.01285575 19 6 C18.08476562 5.91621094 17.16953125 5.83242187 16.2265625 5.74609375 C15.03804687 5.64425781 13.84953125 5.54242188 12.625 5.4375 C11.44164062 5.33308594 10.25828125 5.22867188 9.0390625 5.12109375 C6.08101369 4.75846404 6.08101369 4.75846404 4 6 C4 5.34 4 4.68 4 4 C2.68 3.34 1.36 2.68 0 2 C0 1.34 0 0.68 0 0 Z " fill="#69191D" transform="translate(175,139)"/>
<path d="M0 0 C0.99 0 1.98 0 3 0 C3 0.66 3 1.32 3 2 C8.28 2 13.56 2 19 2 C17 4 17 4 14.35546875 4.265625 C12.78732422 4.25789062 12.78732422 4.25789062 11.1875 4.25 C9.63095703 4.25773438 9.63095703 4.25773438 8.04296875 4.265625 C4.9807237 3.99831735 2.77133908 3.29090101 0 2 C0 1.34 0 0.68 0 0 Z " fill="#84393B" transform="translate(874,201)"/>
<path d="M0 0 C4.8938496 0.41947282 6.73093997 2.48576046 10 6 C10.886875 6.66 11.77375 7.32 12.6875 8 C15.22592982 10.19539877 16.03068679 11.82770221 17 15 C3.28571429 3.28571429 3.28571429 3.28571429 0 0 Z " fill="#612123" transform="translate(146,111)"/>
<path d="M0 0 C0.33 0.66 0.66 1.32 1 2 C1.99 2 2.98 2 4 2 C3.47731534 4.76276177 2.89130413 7.3260876 2 10 C2.495 10.45375 2.99 10.9075 3.5 11.375 C5 13 5 13 5 15 C1.125 13.125 1.125 13.125 0 12 C-0.07244053 9.98035801 -0.08377188 7.95832876 -0.0625 5.9375 C-0.05347656 4.83277344 -0.04445313 3.72804688 -0.03515625 2.58984375 C-0.02355469 1.73519531 -0.01195312 0.88054687 0 0 Z " fill="#8C3F40" transform="translate(387,82)"/>
<path d="M0 0 C1.13050781 -0.00257813 2.26101563 -0.00515625 3.42578125 -0.0078125 C6.30903596 0.10958949 8.8865855 0.46287012 11.6875 1.125 C11.6875 1.455 11.6875 1.785 11.6875 2.125 C8.72960873 2.3460949 5.77197236 2.55240245 2.8125 2.75 C1.54986328 2.84667969 1.54986328 2.84667969 0.26171875 2.9453125 C-0.94677734 3.02265625 -0.94677734 3.02265625 -2.1796875 3.1015625 C-2.92331543 3.15393066 -3.66694336 3.20629883 -4.43310547 3.26025391 C-6.3125 3.125 -6.3125 3.125 -8.3125 1.125 C-5.50346379 -0.2795181 -3.13135492 -0.00709254 0 0 Z " fill="#813B3C" transform="translate(793.3125,200.875)"/>
<path d="M0 0 C0.66 0 1.32 0 2 0 C1.88541307 1.43836751 1.75790884 2.87570966 1.625 4.3125 C1.55539062 5.11300781 1.48578125 5.91351563 1.4140625 6.73828125 C1 9 1 9 -1 12 C-1 10.68 -1 9.36 -1 8 C-1.66 8 -2.32 8 -3 8 C-3.33 6.35 -3.66 4.7 -4 3 C-2.68 2.67 -1.36 2.34 0 2 C0 1.34 0 0.68 0 0 Z " fill="#893338" transform="translate(813,190)"/>
<path d="M0 0 C0.7425 0.2475 1.485 0.495 2.25 0.75 C1.610625 1.183125 0.97125 1.61625 0.3125 2.0625 C-2.01746003 3.66239177 -2.01746003 3.66239177 -2.75 6.75 C-5.75791911 8.79108797 -8.17195344 8.94878036 -11.75 8.75 C-10.08333333 7.08333333 -8.41666667 5.41666667 -6.75 3.75 C-6.09 2.96625 -5.43 2.1825 -4.75 1.375 C-2.75 -0.25 -2.75 -0.25 0 0 Z " fill="#7B4042" transform="translate(101.75,167.25)"/>
<path d="M0 0 C-0.54863863 6.7857936 -1.54267938 13.35009036 -3 20 C-3.33 20 -3.66 20 -4 20 C-3.91621094 18.96359375 -3.83242188 17.9271875 -3.74609375 16.859375 C-3.64289218 15.48960868 -3.54004626 14.11981553 -3.4375 12.75 C-3.38142578 12.06808594 -3.32535156 11.38617188 -3.26757812 10.68359375 C-3.01813746 7.2579419 -2.86120255 4.27298823 -4 1 C-1 0 -1 0 0 0 Z " fill="#853235" transform="translate(776,130)"/>
<path d="M0 0 C4.875 1.75 4.875 1.75 6 4 C5.67 4.66 5.34 5.32 5 6 C5.66 6 6.32 6 7 6 C9.125 7.8125 9.125 7.8125 11 10 C11 10.99 11 11.98 11 13 C10.01 12.67 9.02 12.34 8 12 C8 11.34 8 10.68 8 10 C7.34 10 6.68 10 6 10 C4.4921875 7.8125 4.4921875 7.8125 2.875 5 C2.33617187 4.071875 1.79734375 3.14375 1.2421875 2.1875 C0.83226563 1.465625 0.42234375 0.74375 0 0 Z " fill="#6F1C20" transform="translate(24,178)"/>
<path d="M0 0 C0 0.99 0 1.98 0 3 C-2.33899132 4.55932754 -4.50646922 5.75323461 -7 7 C-8.2684375 7.8353125 -8.2684375 7.8353125 -9.5625 8.6875 C-10.366875 9.120625 -11.17125 9.55375 -12 10 C-12.99 9.67 -13.98 9.34 -15 9 C-13.06537998 7.68325862 -11.12720303 6.37174202 -9.1875 5.0625 C-8.10855469 4.33160156 -7.02960937 3.60070312 -5.91796875 2.84765625 C-3 1 -3 1 0 0 Z " fill="#70262A" transform="translate(554,108)"/>
<path d="M0 0 C0.33 0 0.66 0 1 0 C1 6.27 1 12.54 1 19 C-1.64 19 -4.28 19 -7 19 C-7 18.67 -7 18.34 -7 18 C-5.35 17.67 -3.7 17.34 -2 17 C-0.95117609 13.43928688 -0.69613047 9.94472103 -0.4375 6.25 C-0.35371094 5.07953125 -0.26992187 3.9090625 -0.18359375 2.703125 C-0.12300781 1.81109375 -0.06242187 0.9190625 0 0 Z " fill="#680E0B" transform="translate(117,114)"/>
<path d="M0 0 C0.99386719 0.00902344 1.98773437 0.01804687 3.01171875 0.02734375 C4.15060547 0.04474609 4.15060547 0.04474609 5.3125 0.0625 C5.3125 0.3925 5.3125 0.7225 5.3125 1.0625 C4.72082031 1.08828125 4.12914062 1.1140625 3.51953125 1.140625 C-1.7595013 1.51954414 -4.79386661 2.16886661 -8.6875 6.0625 C-10.0075 5.4025 -11.3275 4.7425 -12.6875 4.0625 C-8.41027069 0.67021469 -5.42406114 -0.06381248 0 0 Z " fill="#762B2D" transform="translate(899.6875,104.9375)"/>
<path d="M0 0 C0.33 0 0.66 0 1 0 C1.33 5.94 1.66 11.88 2 18 C0.02 18.99 0.02 18.99 -2 20 C-1.34 13.4 -0.68 6.8 0 0 Z " fill="#944649" transform="translate(476,141)"/>
<path d="M0 0 C2 1 2 1 2.6875 2.8125 C3.02688538 5.18819767 2.72856341 6.73335829 2 9 C3.32 9.66 4.64 10.32 6 11 C3.69 10.67 1.38 10.34 -1 10 C-1.125 2.25 -1.125 2.25 0 0 Z " fill="#7B2E32" transform="translate(674,192)"/>
<path d="M0 0 C0.33 0 0.66 0 1 0 C1.10841951 1.91541138 1.18578079 3.83259773 1.25 5.75 C1.29640625 6.81734375 1.3428125 7.8846875 1.390625 8.984375 C0.91735478 12.63802112 -0.19155042 13.72228105 -3 16 C-2.40984815 10.49191603 -1.43336231 5.35121931 0 0 Z " fill="#752C31" transform="translate(844,139)"/>
<path d="M0 0 C0 0.33 0 0.66 0 1 C-13.6332574 3.66514806 -13.6332574 3.66514806 -20 1 C-20 0.67 -20 0.34 -20 0 C-13.16920852 -1.18225237 -6.87368733 -0.74464946 0 0 Z " fill="#D8BABA" transform="translate(415,106)"/>
<path d="M0 0 C0 0.33 0 0.66 0 1 C-0.98742187 1.13277344 -1.97484375 1.26554687 -2.9921875 1.40234375 C-4.27351563 1.57894531 -5.55484375 1.75554687 -6.875 1.9375 C-8.78925781 2.19853516 -8.78925781 2.19853516 -10.7421875 2.46484375 C-13.87559454 2.81433227 -13.87559454 2.81433227 -16 4 C-16.33 3.01 -16.66 2.02 -17 1 C-11.02197063 -1.20927172 -6.26039609 -0.93213141 0 0 Z " fill="#8D4649" transform="translate(414,69)"/>
<path d="M0 0 C3.2542015 2.83430453 4.5206753 4.68607774 5 9 C4.38125 8.34 3.7625 7.68 3.125 7 C1.24362573 4.7715451 1.24362573 4.7715451 -1 5 C-1.66 6.32 -2.32 7.64 -3 9 C-3.75 7.3125 -3.75 7.3125 -4 5 C-2.0625 2.25 -2.0625 2.25 0 0 Z " fill="#9A5959" transform="translate(303,158)"/>
<path d="M0 0 C1.32 0 2.64 0 4 0 C4 0.66 4 1.32 4 2 C3.34 2 2.68 2 2 2 C1.67 4.64 1.34 7.28 1 10 C-1.97 10 -4.94 10 -8 10 C-8 9.67 -8 9.34 -8 9 C-4.535 8.505 -4.535 8.505 -1 8 C-0.67 5.36 -0.34 2.72 0 0 Z " fill="#662629" transform="translate(71,155)"/>
<path d="M0 0 C0.33 0 0.66 0 1 0 C1 1.98 1 3.96 1 6 C5.455 5.505 5.455 5.505 10 5 C10 5.66 10 6.32 10 7 C6.0186217 8.3271261 2.14954773 8.06915913 -2 8 C-1.125 1.125 -1.125 1.125 0 0 Z " fill="#AA7377" transform="translate(308,125)"/>
<path d="M0 0 C0.33 0 0.66 0 1 0 C1.02694851 1.95825873 1.04637218 3.91662226 1.0625 5.875 C1.07410156 6.96554688 1.08570313 8.05609375 1.09765625 9.1796875 C1 12 1 12 0 14 C-0.66 14 -1.32 14 -2 14 C-2.33 14.66 -2.66 15.32 -3 16 C-2.68954268 14.0830014 -2.37655329 12.16641277 -2.0625 10.25 C-1.88847656 9.18265625 -1.71445312 8.1153125 -1.53515625 7.015625 C-1.11295829 4.63652407 -0.62797116 2.33084789 0 0 Z " fill="#86383A" transform="translate(276,109)"/>
<path d="M0 0 C0.66 0.33 1.32 0.66 2 1 C-2.75 5 -2.75 5 -5 5 C-5.061875 5.61875 -5.12375 6.2375 -5.1875 6.875 C-6 9 -6 9 -8.5625 10.25 C-9.366875 10.4975 -10.17125 10.745 -11 11 C-9.52202738 7.32943063 -7.52384523 5.58914217 -4.375 3.25 C-3.55773438 2.63640625 -2.74046875 2.0228125 -1.8984375 1.390625 C-0.95871094 0.70226562 -0.95871094 0.70226562 0 0 Z " fill="#651719" transform="translate(41,85)"/>
<path d="M0 0 C1.45047396 2.90094791 0.45356803 4.55972596 -0.4375 7.625 C-0.86869141 9.12933594 -0.86869141 9.12933594 -1.30859375 10.6640625 C-1.53675781 11.43492187 -1.76492188 12.20578125 -2 13 C-4.0234375 9.3125 -4.0234375 9.3125 -3.8125 6.5 C-2.9447977 3.83014678 -1.81067772 2.12557819 0 0 Z " fill="#8E4043" transform="translate(504,167)"/>
<path d="M0 0 C0.33 0 0.66 0 1 0 C0.979375 1.093125 0.95875 2.18625 0.9375 3.3125 C0.81455548 6.94384191 0.81455548 6.94384191 2 10 C0.35 11.65 -1.3 13.3 -3 15 C-2.01 10.05 -1.02 5.1 0 0 Z " fill="#732025" transform="translate(372,159)"/>
<path d="M0 0 C1.53202706 0.25195908 3.05257128 0.57596777 4.5625 0.9375 C5.38878906 1.13214844 6.21507813 1.32679688 7.06640625 1.52734375 C8.02353516 1.76130859 8.02353516 1.76130859 9 2 C9 2.33 9 2.66 9 3 C6.69 3.33 4.38 3.66 2 4 C2 4.66 2 5.32 2 6 C0.02 6.99 0.02 6.99 -2 8 C-1.125 1.125 -1.125 1.125 0 0 Z " fill="#700C0B" transform="translate(78,140)"/>
<path d="M0 0 C0.33 0.66 0.66 1.32 1 2 C-0.98 4.97 -0.98 4.97 -3 8 C-3.33 7.34 -3.66 6.68 -4 6 C-4.99 5.67 -5.98 5.34 -7 5 C-4.63707344 2.47411298 -3.33537489 1.11179163 0 0 Z " fill="#913D40" transform="translate(355,133)"/>
<path d="M0 0 C7.48291572 6.15034169 7.48291572 6.15034169 10 10 C7.40484463 9.64930333 5.47429754 9.33376494 3.3125 7.8125 C1.55068471 5.37951698 0.8285143 2.86793412 0 0 Z " fill="#631517" transform="translate(150,118)"/>
<path d="M0 0 C1.32 0 2.64 0 4 0 C4.33 1.98 4.66 3.96 5 6 C3.68 6.33 2.36 6.66 1 7 C-0.0625 4.625 -0.0625 4.625 -1 2 C-0.67 1.34 -0.34 0.68 0 0 Z " fill="#7A2227" transform="translate(419,76)"/>
<path d="M0 0 C0.33 0.66 0.66 1.32 1 2 C1.99 2.33 2.98 2.66 4 3 C2.38405168 5.04119788 0.7143618 7.04072937 -1 9 C-1.66 9 -2.32 9 -3 9 C-2.01 6.03 -1.02 3.06 0 0 Z " fill="#832F32" transform="translate(473,162)"/>
<path d="M0 0 C2.84809926 0.30790262 4.58286148 0.65478191 6.8125 2.5 C8.60081417 6.26487195 8.23646554 9.90126405 8 14 C7.34 14 6.68 14 6 14 C6.1546875 12.4221875 6.1546875 12.4221875 6.3125 10.8125 C5.92449986 6.07889834 4.52408415 5.00836452 1 2 C0.67 1.34 0.34 0.68 0 0 Z " fill="#814F4F" transform="translate(178,150)"/>
<path d="M0 0 C4.62 0 9.24 0 14 0 C14 0.33 14 0.66 14 1 C12.98679687 1.19916016 12.98679687 1.19916016 11.953125 1.40234375 C10.61507812 1.66724609 10.61507812 1.66724609 9.25 1.9375 C8.36828125 2.11152344 7.4865625 2.28554687 6.578125 2.46484375 C4.36764947 2.92368488 2.18487932 3.43336074 0 4 C0 2.68 0 1.36 0 0 Z " fill="#5A1817" transform="translate(76,148)"/>
<path d="M0 0 C4.76350585 0.71452588 9.34201396 1.79534844 14 3 C13.34 3.66 12.68 4.32 12 5 C6.69997555 4.79999908 3.85233763 3.61886262 0 0 Z " fill="#833132" transform="translate(431,199)"/>
<path d="M0 0 C0.66 0.66 1.32 1.32 2 2 C1.96712417 4.72869407 1.43602229 7.2966618 1 10 C0.67 10 0.34 10 0 10 C-0.103125 9.21625 -0.20625 8.4325 -0.3125 7.625 C-0.77595022 4.66954819 -0.77595022 4.66954819 -4 3 C-4 2.34 -4 1.68 -4 1 C-2 0 -2 0 0 0 Z " fill="#934443" transform="translate(716,148)"/>
<path d="M0 0 C1.2065625 0.0309375 1.2065625 0.0309375 2.4375 0.0625 C2.03946439 2.94825819 1.64740931 3.88439513 -0.625 5.8125 C-1.264375 6.225 -1.90375 6.6375 -2.5625 7.0625 C-2.94383299 5.0710944 -3.27575582 3.06970923 -3.5625 1.0625 C-2.5625 0.0625 -2.5625 0.0625 0 0 Z " fill="#772225" transform="translate(348.5625,138.9375)"/>
<path d="M0 0 C1.65 1.32 3.3 2.64 5 4 C4.6875 6.375 4.6875 6.375 4 9 C3.01 9.66 2.02 10.32 1 11 C1.33 8.36 1.66 5.72 2 3 C1.34 3 0.68 3 0 3 C0 2.01 0 1.02 0 0 Z " fill="#984646" transform="translate(881,102)"/>
<path d="M0 0 C4.55015893 1.51671964 6.50057264 5.16891053 9 9 C8.67 9.66 8.34 10.32 8 11 C6 9 6 9 4.5625 6.875 C4.046875 6.25625 3.53125 5.6375 3 5 C2.01 5 1.02 5 0 5 C-0.5625 3.0625 -0.5625 3.0625 -1 1 C-0.67 0.67 -0.34 0.34 0 0 Z " fill="#6F1317" transform="translate(216,90)"/>
<path d="M0 0 C-2.64 1.98 -5.28 3.96 -8 6 C-8.66 4.68 -9.32 3.36 -10 2 C-8.71211992 1.46987262 -7.41953322 0.9511671 -6.125 0.4375 C-5.40570312 0.14746094 -4.68640625 -0.14257812 -3.9453125 -0.44140625 C-2 -1 -2 -1 0 0 Z " fill="#882C2F" transform="translate(907,196)"/>
<path d="M0 0 C2.64 0 5.28 0 8 0 C8.66 1.98 9.32 3.96 10 6 C9.484375 5.505 8.96875 5.01 8.4375 4.5 C5.19319983 2.50350759 2.73782666 2.78435615 -1 3 C-0.67 2.01 -0.34 1.02 0 0 Z " fill="#A15456" transform="translate(882,133)"/>
<path d="M0 0 C-0.99 0.495 -0.99 0.495 -2 1 C-2.33 1.99 -2.66 2.98 -3 4 C-5.0625 4.6875 -5.0625 4.6875 -7 5 C-7.33 3.68 -7.66 2.36 -8 1 C-5.29120665 -0.35439668 -2.99066732 -0.06501451 0 0 Z " fill="#780E0E" transform="translate(88,154)"/>
<path d="M0 0 C0.33 0.99 0.66 1.98 1 3 C0.34 3.66 -0.32 4.32 -1 5 C-1.16681109 8.08347826 -1.16681109 8.08347826 -1 11 C-2.65 11 -4.3 11 -6 11 C-4.54955729 6.89041233 -2.48889248 3.56741255 0 0 Z " fill="#67171C" transform="translate(533,124)"/>
<path d="M0 0 C1.60080151 4.00200378 0.29279692 7.04556236 -1 11 C-1.33 11 -1.66 11 -2 11 C-2.66 8.69 -3.32 6.38 -4 4 C-2.68 2.68 -1.36 1.36 0 0 Z " fill="#6F1516" transform="translate(76,122)"/>
<path d="M0 0 C1.32 0.66 2.64 1.32 4 2 C4 2.33 4 2.66 4 3 C2.3603125 3.4021875 2.3603125 3.4021875 0.6875 3.8125 C-2.61692663 4.87663739 -3.94960422 5.34654664 -6 8 C-6.66 7.34 -7.32 6.68 -8 6 C-7.01 5.67 -6.02 5.34 -5 5 C-5 4.34 -5 3.68 -5 3 C-3.35 2.67 -1.7 2.34 0 2 C0 1.34 0 0.68 0 0 Z " fill="#8A4545" transform="translate(316,105)"/>
<path d="M0 0 C0.99 0 1.98 0 3 0 C2.34 3.96 1.68 7.92 1 12 C0.01 10.68 -0.98 9.36 -2 8 C-1.34 7.67 -0.68 7.34 0 7 C0 4.69 0 2.38 0 0 Z " fill="#8E4547" transform="translate(708,183)"/>
<path d="M0 0 C2.00720923 0.28674418 4.0085944 0.61866701 6 1 C4.71937515 2.7074998 3.38232443 4.37373596 2 6 C1.34 6 0.68 6 0 6 C-0.38218767 4.34385343 -0.71395102 2.67542976 -1 1 C-0.67 0.67 -0.34 0.34 0 0 Z " fill="#7A1E22" transform="translate(184,168)"/>
<path d="M0 0 C0.33 0.66 0.66 1.32 1 2 C1.66 2 2.32 2 3 2 C2.21681311 5.91593446 0.60820142 9.36406635 -1 13 C-2.12758089 9.61725734 -1.81750262 8.23221777 -1.0625 4.8125 C-0.86785156 3.91144531 -0.67320312 3.01039063 -0.47265625 2.08203125 C-0.23869141 1.05142578 -0.23869141 1.05142578 0 0 Z " fill="#772325" transform="translate(377,134)"/>
<path d="M0 0 C4.08378283 0.74250597 8.01939223 1.82923301 12 3 C11.34 3.66 10.68 4.32 10 5 C8.70590408 4.54857119 7.41478941 4.08858979 6.125 3.625 C5.40570312 3.36976563 4.68640625 3.11453125 3.9453125 2.8515625 C2 2 2 2 0 0 Z " fill="#833839" transform="translate(745,200)"/>
<path d="M0 0 C0.33 2.97 0.66 5.94 1 9 C0.01 8.67 -0.98 8.34 -2 8 C-2.33 5.69 -2.66 3.38 -3 1 C-1 0 -1 0 0 0 Z " fill="#812B2C" transform="translate(428,187)"/>
<path d="M0 0 C4 0 4 0 6.625 2.3125 C9 5 9 5 11 8 C7.63833578 7.40501518 5.78840322 6.25635842 3.25 4 C2.63640625 3.46375 2.0228125 2.9275 1.390625 2.375 C0.93171875 1.92125 0.4728125 1.4675 0 1 C0 0.67 0 0.34 0 0 Z " fill="#641617" transform="translate(156,169)"/>
<path d="M0 0 C0.33 0 0.66 0 1 0 C1.36923077 7.50769231 1.36923077 7.50769231 -0.5 10 C-0.995 10.33 -1.49 10.66 -2 11 C-2.66 10.67 -3.32 10.34 -4 10 C-2.68 6.7 -1.36 3.4 0 0 Z " fill="#76292D" transform="translate(786,161)"/>
<path d="M0 0 C0.99 0.33 1.98 0.66 3 1 C3.33 4.3 3.66 7.6 4 11 C3.34 11 2.68 11 2 11 C0.57741188 7.17679443 -0.24042276 4.08718695 0 0 Z " fill="#852A2B" transform="translate(308,164)"/>
<path d="M0 0 C2.46800047 1.15173355 4.04783565 2.04783565 6 4 C5.625 6.125 5.625 6.125 5 8 C2.5 5.6875 2.5 5.6875 0 3 C0 2.01 0 1.02 0 0 Z " fill="#601815" transform="translate(90,153)"/>
<path d="M0 0 C0.33 0 0.66 0 1 0 C1 2.31 1 4.62 1 7 C-0.32 6.67 -1.64 6.34 -3 6 C-2.42655063 3.13275314 -2.1385485 2.1385485 0 0 Z " fill="#96282A" transform="translate(469,193)"/>
<path d="M0 0 C1.32 0 2.64 0 4 0 C3.67 1.65 3.34 3.3 3 5 C1.68 5.33 0.36 5.66 -1 6 C-0.67 4.02 -0.34 2.04 0 0 Z " fill="#742829" transform="translate(156,155)"/>
<path d="M0 0 C1.32 0.33 2.64 0.66 4 1 C3.01 2.98 2.02 4.96 1 7 C0.01 5.68 -0.98 4.36 -2 3 C-1.34 2.01 -0.68 1.02 0 0 Z " fill="#984848" transform="translate(338,149)"/>
<path d="M0 0 C0.66 0 1.32 0 2 0 C1.375 6.625 1.375 6.625 -2 10 C-1.34 6.7 -0.68 3.4 0 0 Z " fill="#712123" transform="translate(850,111)"/>
<path d="M0 0 C2.02408755 0.09002398 4.04544287 0.24641038 6.0625 0.4375 C7.71958984 0.59025391 7.71958984 0.59025391 9.41015625 0.74609375 C10.26480469 0.82988281 11.11945313 0.91367188 12 1 C12 1.33 12 1.66 12 2 C10.86111328 2.07347656 10.86111328 2.07347656 9.69921875 2.1484375 C8.70535156 2.22320312 7.71148437 2.29796875 6.6875 2.375 C5.20830078 2.47941406 5.20830078 2.47941406 3.69921875 2.5859375 C0.78471567 2.83865472 0.78471567 2.83865472 -2 5 C-1.125 1.125 -1.125 1.125 0 0 Z " fill="#651D22" transform="translate(62,132)"/>
<path d="M0 0 C0.99 0 1.98 0 3 0 C2.67 1.98 2.34 3.96 2 6 C1.34 6 0.68 6 0 6 C-0.33 7.32 -0.66 8.64 -1 10 C-1.125 3.375 -1.125 3.375 0 0 Z " fill="#813335" transform="translate(484,103)"/>
<path d="M0 0 C2.31 1.98 4.62 3.96 7 6 C6.01 6.495 6.01 6.495 5 7 C2.375 6.0625 2.375 6.0625 0 5 C0 3.35 0 1.7 0 0 Z " fill="#651718" transform="translate(348,88)"/>
<path d="M0 0 C2 0.66666667 4 1.33333333 6 2 C5.34 3.32 4.68 4.64 4 6 C3.01 5.67 2.02 5.34 1 5 C0.67 3.35 0.34 1.7 0 0 Z " fill="#7D1B1F" transform="translate(858,72)"/>
<path d="M0 0 C0.66 0 1.32 0 2 0 C1.67 1.32 1.34 2.64 1 4 C2.32 4.66 3.64 5.32 5 6 C3.02 6.66 1.04 7.32 -1 8 C-0.67 5.36 -0.34 2.72 0 0 Z " fill="#823436" transform="translate(833,188)"/>
<path d="M0 0 C1.65 0 3.3 0 5 0 C5.66 1.98 6.32 3.96 7 6 C3.63279613 4.60667426 2.0140476 3.0210714 0 0 Z " fill="#843739" transform="translate(528,192)"/>
<path d="M0 0 C-3.1749094 1.9078584 -5.10585211 2.1609041 -8.75 1.625 C-9.54921875 1.51414063 -10.3484375 1.40328125 -11.171875 1.2890625 C-11.77515625 1.19367188 -12.3784375 1.09828125 -13 1 C-12.37996094 0.84789062 -11.75992188 0.69578125 -11.12109375 0.5390625 C-9.75704583 0.19239839 -8.40194417 -0.19292123 -7.0625 -0.625 C-4.48800126 -1.09309068 -2.51818343 -0.62954586 0 0 Z " fill="#87484B" transform="translate(178,172)"/>
<path d="M0 0 C3 2 3 2 5 5 C2.69 4.67 0.38 4.34 -2 4 C-1.34 2.68 -0.68 1.36 0 0 Z " fill="#720B0B" transform="translate(562,162)"/>
<path d="M0 0 C2.14210449 1.76956458 2.96060573 2.87575652 3.8125 5.5625 C3.874375 6.366875 3.93625 7.17125 4 8 C3.34 8.66 2.68 9.32 2 10 C0.68373308 6.38026598 0 3.90432869 0 0 Z " fill="#59151A" transform="translate(179,155)"/>
<path d="M0 0 C1.32 0.66 2.64 1.32 4 2 C3.67 3.32 3.34 4.64 3 6 C1.35 5.01 -0.3 4.02 -2 3 C-1.34 2.67 -0.68 2.34 0 2 C0 1.34 0 0.68 0 0 Z " fill="#722126" transform="translate(171,130)"/>
<path d="M0 0 C1.65 1.65 3.3 3.3 5 5 C4.67 5.99 4.34 6.98 4 8 C3.67 7.01 3.34 6.02 3 5 C2.01 4.67 1.02 4.34 0 4 C-0.33 3.01 -0.66 2.02 -1 1 C-0.67 0.67 -0.34 0.34 0 0 Z " fill="#722426" transform="translate(918,113)"/>
<path d="M0 0 C0.33 0 0.66 0 1 0 C1 2.97 1 5.94 1 9 C0.01 9.33 -0.98 9.66 -2 10 C-1.34 6.7 -0.68 3.4 0 0 Z " fill="#7E3237" transform="translate(852,101)"/>
<path d="M0 0 C1.32 0.66 2.64 1.32 4 2 C3.360625 2.103125 2.72125 2.20625 2.0625 2.3125 C1.381875 2.539375 0.70125 2.76625 0 3 C-0.33 3.99 -0.66 4.98 -1 6 C-1.625 4.125 -1.625 4.125 -2 2 C-1.34 1.34 -0.68 0.68 0 0 Z " fill="#A05255" transform="translate(862,194)"/>
<path d="M0 0 C0.99 0 1.98 0 3 0 C3.33 0.99 3.66 1.98 4 3 C3.01 4.485 3.01 4.485 2 6 C0.68 4.68 -0.64 3.36 -2 2 C-1.34 2 -0.68 2 0 2 C0 1.34 0 0.68 0 0 Z " fill="#9C4046" transform="translate(644,193)"/>
<path d="M0 0 C0.33 0 0.66 0 1 0 C1.6875 3.3125 1.6875 3.3125 2 7 C0.5625 8.9375 0.5625 8.9375 -1 10 C-1.125 3.375 -1.125 3.375 0 0 Z " fill="#7F3035" transform="translate(616,175)"/>
<path d="M0 0 C2.31 0.33 4.62 0.66 7 1 C3.86501708 2.85776765 1.62528568 3.20140476 -2 3 C-1.34 2.67 -0.68 2.34 0 2 C0 1.34 0 0.68 0 0 Z " fill="#7F3538" transform="translate(85,171)"/>
<path d="M0 0 C0.28875 0.639375 0.5775 1.27875 0.875 1.9375 C1.82823451 4.15206079 1.82823451 4.15206079 4 5 C2.35 5.33 0.7 5.66 -1 6 C-1.042721 4.33388095 -1.04063832 2.66617115 -1 1 C-0.67 0.67 -0.34 0.34 0 0 Z " fill="#6A1614" transform="translate(162,160)"/>
<path d="M0 0 C0.66 0 1.32 0 2 0 C1.01 2.97 0.02 5.94 -1 9 C-1.66 8.01 -2.32 7.02 -3 6 C-2.01 4.02 -1.02 2.04 0 0 Z " fill="#A46B6B" transform="translate(876,140)"/>
<path d="M0 0 C1.32 0 2.64 0 4 0 C4.12375 0.639375 4.2475 1.27875 4.375 1.9375 C4.684375 2.9584375 4.684375 2.9584375 5 4 C5.66 4.33 6.32 4.66 7 5 C3.47967572 5 2.5614657 4.29648649 0 2 C0 1.34 0 0.68 0 0 Z " fill="#7A3133" transform="translate(163,126)"/>
<path d="M0 0 C0.33 0.99 0.66 1.98 1 3 C0.67 3.66 0.34 4.32 0 5 C-0.99 5 -1.98 5 -3 5 C-3.33 5.66 -3.66 6.32 -4 7 C-3.6875 4.625 -3.6875 4.625 -3 2 C-2.01 1.34 -1.02 0.68 0 0 Z " fill="#631613" transform="translate(83,113)"/>
<path d="M0 0 C-1.49097658 3.7952131 -3.75700849 5.61042731 -7 8 C-7 5 -7 5 -4.625 2.3125 C-2 0 -2 0 0 0 Z " fill="#A06062" transform="translate(422,91)"/>
<path d="M0 0 C2 1 2 1 2 1 Z " fill="#FFFFFF" transform="translate(89,151)"/>
<path d="" fill="#FFFFFF" transform="translate(0,0)"/>
<path d="" fill="#FFFFFF" transform="translate(0,0)"/>
<path d="" fill="#FFFFFF" transform="translate(0,0)"/>
<path d="" fill="#FFFFFF" transform="translate(0,0)"/>
<path d="" fill="#FFFFFF" transform="translate(0,0)"/>
</svg>
